<svg width="48" height="48" viewBox="0 0 48 48" fill="none" xmlns="http://www.w3.org/2000/svg">
<rect width="48" height="48" rx="24" fill="#FFA800"/>
<path fill-rule="evenodd" clip-rule="evenodd" d="M31.8983 21.2739C31.6466 23.0116 30.7388 24.0629 29.175 24.4278C30.2009 24.9584 30.8977 25.64 31.2654 26.4727C31.6331 27.3053 31.5962 28.3544 31.1547 29.6199C30.9258 30.2655 30.6303 30.8105 30.2682 31.2551C29.9061 31.6996 29.503 32.04 29.0588 32.2763C28.6147 32.5126 28.0952 32.6734 27.5005 32.7588C26.9058 32.8441 26.2999 32.8649 25.6827 32.821C25.0656 32.7772 24.3702 32.6794 23.5968 32.5277L22.7152 36.0926L20.5624 35.5602L21.4301 32.0513C20.6845 31.8669 20.1171 31.7216 19.728 31.6155L18.8568 35.1384L16.7039 34.606L17.5855 31.0412C17.4177 30.9997 17.1667 30.9351 16.8323 30.8475C16.4979 30.7599 16.2422 30.6942 16.0651 30.6504L13.2692 29.959L14.3352 27.5078L15.8869 27.8916C16.3529 28.0068 16.682 27.836 16.8741 27.3791L18.2638 21.7592L18.4875 21.8145C18.4339 21.7914 18.3605 21.7683 18.2673 21.7452L19.2595 17.733C19.295 17.0693 18.9586 16.6499 18.2503 16.4747L16.6986 16.091L17.2655 13.7983L20.2258 14.5452C20.8223 14.6927 21.2754 14.7998 21.5853 14.8665L22.4565 11.3436L24.6094 11.876L23.7555 15.329C24.5243 15.4994 25.0951 15.6306 25.4679 15.7228L26.3149 12.2978L28.4678 12.8302L27.5966 16.3531C28.3168 16.6004 28.9432 16.8666 29.476 17.1516C30.0088 17.4367 30.4835 17.7766 30.9002 18.1714C31.3168 18.5661 31.6114 19.0247 31.7838 19.547C31.9563 20.0693 31.9945 20.6449 31.8983 21.2739ZM27.0085 28.1496C27.0915 27.8141 27.0953 27.4985 27.0201 27.203C26.9448 26.9075 26.8254 26.6505 26.6618 26.432C26.4983 26.2136 26.2655 26.0052 25.9634 25.8069C25.6614 25.6086 25.3775 25.4469 25.1117 25.3218C24.846 25.1967 24.5115 25.0695 24.1083 24.9402C23.7052 24.8108 23.3871 24.7173 23.1541 24.6597C22.9211 24.6021 22.6194 24.5324 22.2489 24.4507C21.8785 24.369 21.656 24.3189 21.5814 24.3005L20.413 29.0256C20.4875 29.0441 20.6594 29.089 20.9285 29.1605C21.1976 29.232 21.4207 29.2897 21.5978 29.3335C21.7749 29.3773 22.0236 29.4313 22.3439 29.4957C22.6642 29.5601 22.9414 29.6089 23.1755 29.642C23.4096 29.6752 23.6851 29.7013 24.0018 29.7203C24.3185 29.7392 24.5933 29.738 24.8261 29.7164C25.0588 29.6949 25.3044 29.6517 25.5627 29.587C25.821 29.5224 26.0396 29.4281 26.2186 29.3042C26.3976 29.1803 26.5579 29.0222 26.6994 28.8297C26.8409 28.6373 26.944 28.4105 27.0085 28.1496ZM27.6891 20.3889C27.7468 20.6554 27.7377 20.9424 27.6616 21.2499C27.5971 21.5109 27.4964 21.7382 27.3595 21.9318C27.2226 22.1254 27.0524 22.2737 26.8489 22.3767C26.6454 22.4796 26.4419 22.5628 26.2383 22.6262C26.0347 22.6896 25.7874 22.7199 25.4963 22.7172C25.2053 22.7144 24.9526 22.7063 24.7384 22.6929C24.5241 22.6795 24.2615 22.6417 23.9505 22.5797C23.6394 22.5176 23.4041 22.4693 23.2445 22.4348C23.085 22.4002 22.8683 22.3467 22.5945 22.274C22.3207 22.2014 22.1605 22.1593 22.1139 22.1478L23.1752 17.856C23.2405 17.8721 23.4251 17.9153 23.7292 17.9855C24.0332 18.0558 24.286 18.1133 24.4875 18.1582C24.6891 18.2031 24.9565 18.2816 25.2897 18.3937C25.623 18.5058 25.9003 18.6139 26.1218 18.7181C26.3433 18.8223 26.5806 18.9626 26.8337 19.1389C27.0868 19.3153 27.2782 19.501 27.4079 19.6963C27.5376 19.8916 27.6314 20.1224 27.6891 20.3889Z" fill="black"/>
</svg>
