<svg width="48" height="48" viewBox="0 0 48 48" fill="none" xmlns="http://www.w3.org/2000/svg">
<path d="M0 24C0 10.7452 10.7452 0 24 0V0C37.2548 0 48 10.7452 48 24V24C48 37.2548 37.2548 48 24 48V48C10.7452 48 0 37.2548 0 24V24Z" fill="#FF65F7"/>
<path d="M24 48C37.2552 48 48 37.2552 48 24C48 10.7448 37.2552 0 24 0C10.7448 0 0 10.7448 0 24C0 37.2552 10.7448 48 24 48Z" fill="#00D395"/>
<path fill-rule="evenodd" clip-rule="evenodd" d="M13.8648 32.0472C13.1472 31.608 12.708 30.828 12.708 29.988V25.2984C12.708 24.7416 13.1616 24.2904 13.7184 24.2928C13.896 24.2928 14.0712 24.3408 14.2248 24.4296L24.8064 30.6C25.4256 30.96 25.8072 31.6224 25.8072 32.34V37.1976C25.8096 37.8648 25.2696 38.4072 24.6024 38.4072C24.3792 38.4072 24.1584 38.3448 23.9688 38.2296L13.8648 32.0472ZM29.6376 23.1456C30.2568 23.5056 30.636 24.1704 30.6384 24.8856V34.7448C30.6384 35.0352 30.4824 35.304 30.228 35.4456L27.912 36.7488C27.8832 36.7656 27.852 36.7776 27.8184 36.7872V31.3128C27.8184 30.6048 27.4464 29.9472 26.8368 29.5824L17.544 24.024V17.844C17.544 17.2872 17.9976 16.836 18.5544 16.8384C18.732 16.8384 18.9072 16.8864 19.0608 16.9752L29.6376 23.1456ZM34.2696 15.864C34.8912 16.224 35.2728 16.8888 35.2728 17.6064V32.0064C35.2704 32.3016 35.1072 32.5728 34.848 32.7144L32.652 33.9V23.8752C32.652 23.1672 32.28 22.512 31.6752 22.1472L22.176 16.4496V10.5888C22.176 10.4112 22.224 10.236 22.3104 10.0824C22.5912 9.60242 23.208 9.43922 23.688 9.71762L34.2696 15.864Z" fill="white"/>
</svg>
