<svg width="48" height="48" viewBox="0 0 48 48" fill="none" xmlns="http://www.w3.org/2000/svg">
<path d="M24 0C37.2561 0 48 10.7461 48 24C48 37.2561 37.2561 48 24 48C10.7461 48 0 37.255 0 24C0 10.7461 10.7461 0 24 0Z" fill="#F5AC37"/>
<path d="M24.8844 25.6947H34.004C34.1984 25.6947 34.2902 25.6947 34.3042 25.4399C34.3788 24.5121 34.3788 23.579 34.3042 22.6502C34.3042 22.4698 34.2146 22.3953 34.0191 22.3953H15.8695C15.6449 22.3953 15.5844 22.4698 15.5844 22.6804V25.3502C15.5844 25.6947 15.5844 25.6947 15.9441 25.6947H24.8844V25.6947ZM33.2858 19.2752C33.3117 19.2071 33.3117 19.1326 33.2858 19.0656C33.1335 18.7341 32.9532 18.4176 32.7436 18.1206C32.4283 17.613 32.0567 17.1454 31.6334 16.7252C31.4336 16.4714 31.2025 16.2436 30.9433 16.0502C29.6451 14.9454 28.1017 14.1635 26.4428 13.7703C25.6058 13.5824 24.7505 13.4928 23.8929 13.5003H15.8382C15.6136 13.5003 15.5833 13.59 15.5833 13.7855V19.1099C15.5833 19.3346 15.5833 19.395 15.8685 19.395H33.1778C33.1778 19.395 33.3279 19.3648 33.3582 19.2752H33.2847H33.2858ZM33.2858 28.8149C33.0309 28.7868 32.7739 28.7868 32.519 28.8149H15.8847C15.66 28.8149 15.5844 28.8149 15.5844 29.1151V34.3208C15.5844 34.5605 15.5844 34.621 15.8847 34.621H23.5646C23.9318 34.6491 24.299 34.6232 24.6587 34.5465C25.7732 34.4666 26.8695 34.2247 27.9149 33.8261C28.2951 33.6944 28.6623 33.5227 29.009 33.3164H29.1137C30.9141 32.38 32.3764 30.909 33.2988 29.1032C33.2988 29.1032 33.4035 28.8764 33.2858 28.817V28.8149ZM12.5701 37.32V37.2303V33.7354V32.5506V29.0255C12.5701 28.83 12.5701 28.8008 12.3303 28.8008H9.0752C8.89483 28.8008 8.82031 28.8008 8.82031 28.5611V25.7109H12.3001C12.4945 25.7109 12.5701 25.7109 12.5701 25.4561V22.6361C12.5701 22.4558 12.5701 22.4115 12.3303 22.4115H9.0752C8.89483 22.4115 8.82031 22.4115 8.82031 22.1717V19.5322C8.82031 19.367 8.82031 19.3227 9.06008 19.3227H12.285C12.5096 19.3227 12.5701 19.3227 12.5701 19.0375V10.9526C12.5701 10.7128 12.5701 10.6523 12.8704 10.6523H24.1197C24.9362 10.6847 25.7473 10.7744 26.5498 10.9223C28.2033 11.228 29.792 11.8188 31.2446 12.6622C32.2079 13.2292 33.0946 13.914 33.8841 14.7024C34.4781 15.3191 35.0138 15.9865 35.489 16.6972C35.961 17.4175 36.353 18.1876 36.6608 18.9922C36.6986 19.2017 36.8995 19.3432 37.109 19.3076H39.7939C40.1385 19.3076 40.1385 19.3076 40.1536 19.638V22.0983C40.1536 22.3381 40.0639 22.3985 39.8231 22.3985H37.7527C37.5432 22.3985 37.4827 22.3985 37.4978 22.6685C37.5799 23.5822 37.5799 24.4992 37.4978 25.4129C37.4978 25.6677 37.4978 25.698 37.784 25.698H40.1525C40.2573 25.833 40.1525 25.968 40.1525 26.1041C40.1676 26.2779 40.1676 26.454 40.1525 26.6279V28.4434C40.1525 28.6982 40.078 28.7738 39.8523 28.7738H37.0172C36.8196 28.736 36.6273 28.8624 36.582 29.059C35.907 30.814 34.827 32.3876 33.4316 33.649C32.9218 34.108 32.3861 34.54 31.8267 34.9385C31.2262 35.2842 30.6419 35.6438 30.0263 35.9289C28.8934 36.4387 27.7054 36.8145 26.486 37.0532C25.3283 37.2606 24.1543 37.3545 22.976 37.3383H12.5658V37.3232L12.5701 37.32Z" fill="#FEFEFD"/>
</svg>
