<svg width="48" height="48" viewBox="0 0 48 48" fill="none" xmlns="http://www.w3.org/2000/svg">
<circle cx="24" cy="24" r="24" fill="url(#paint0_linear_262_10018)"/>
<circle cx="24" cy="24" r="23.5" stroke="white" stroke-opacity="0.3"/>
<g filter="url(#filter0_d_262_10018)">
<path d="M23.5484 28.8785C24.0038 28.8785 24.4366 28.7837 24.8311 28.6141C24.8454 28.6079 24.8604 28.6049 24.8739 28.6049C24.9596 28.6049 25.016 28.7165 24.9468 28.7898C24.5929 29.162 24.0977 29.3943 23.5484 29.3943C22.9991 29.3943 22.5031 29.162 22.1499 28.7898C22.0695 28.705 22.1589 28.5682 22.2656 28.6141C22.6601 28.7837 23.093 28.8785 23.5484 28.8785Z" fill="white"/>
<path fill-rule="evenodd" clip-rule="evenodd" d="M21.1933 8.4906L21.2016 8.48678C21.9741 8.162 22.7939 8 23.6138 8C24.4366 8 25.2595 8.16353 26.0342 8.4906C27.6536 9.173 28.9206 10.5088 29.5338 12.1785L34.9127 27.3885C34.9375 27.4588 34.96 27.5314 34.9758 27.6048C35.054 27.9624 35.0961 28.3346 35.0961 28.7166C35.0961 30.2068 34.4333 31.5112 33.4849 32.4924C33.4586 32.5192 33.4338 32.5467 33.4098 32.5749C33.2452 32.7698 33.0912 32.931 32.9183 33.0984L27.0201 38.6134C26.3934 39.2217 25.6209 39.6512 24.7785 39.859C24.0166 40.047 23.2215 40.047 22.4595 39.859C21.6179 39.6512 20.8447 39.2217 20.2179 38.6134L14.3198 33.0984C14.2807 33.061 14.2431 33.0227 14.2063 32.9845C14.1326 32.9074 14.0537 32.8363 13.9696 32.7706C12.7725 31.8368 12 30.3688 12 28.7159C12 27.993 12.148 27.306 12.4148 26.6824L17.6825 12.1877C18.2965 10.5126 19.5679 9.173 21.1933 8.4906ZM20.638 34.9362C20.4043 35.1288 20.4043 35.491 20.638 35.6836C21.4331 36.3385 22.4453 36.7313 23.5477 36.7313C24.65 36.7313 25.6623 36.3385 26.4573 35.6836C26.691 35.491 26.691 35.1288 26.4573 34.9362C25.6623 34.2813 24.6508 33.8885 23.5477 33.8885C22.4445 33.8885 21.4331 34.2813 20.638 34.9362ZM16.2014 31.3301L19.1005 34.2783C19.2335 34.4128 19.4094 34.4831 19.5867 34.4831C19.734 34.4831 19.882 34.4342 20.0038 34.3333C21.0047 33.508 22.2431 33.0602 23.5492 33.0602C24.8552 33.0602 26.0936 33.5088 27.0945 34.3333C27.3621 34.5541 27.7528 34.5259 27.9963 34.2783L30.8954 31.3301C31.1704 31.0504 31.1637 30.5881 30.8714 30.326C28.8454 28.5111 26.2724 27.52 23.5484 27.52C20.8244 27.52 18.2514 28.5111 16.2254 30.326C15.9331 30.5873 15.9256 31.0497 16.2014 31.3301ZM27.9948 19.6047C27.7513 19.3563 27.3606 19.3281 27.093 19.5489C26.0921 20.3734 24.8537 20.822 23.5469 20.8212C22.2409 20.8212 21.0025 20.3734 20.0015 19.5489C19.734 19.3288 19.3432 19.3571 19.0998 19.6047L16.2007 22.5529C15.9249 22.8325 15.9324 23.2949 16.2247 23.557C18.2506 25.3719 20.8236 26.363 23.5477 26.363C26.2717 26.363 28.8454 25.3719 30.8706 23.557C31.1629 23.2956 31.1704 22.8333 30.8947 22.5529L27.9948 19.6047Z" fill="white"/>
</g>
<defs>
<filter id="filter0_d_262_10018" x="11" y="7" width="27.0962" height="36" filterUnits="userSpaceOnUse" color-interpolation-filters="sRGB">
<feFlood flood-opacity="0" result="BackgroundImageFix"/>
<feColorMatrix in="SourceAlpha" type="matrix" values="0 0 0 0 0 0 0 0 0 0 0 0 0 0 0 0 0 0 127 0" result="hardAlpha"/>
<feOffset dx="1" dy="1"/>
<feGaussianBlur stdDeviation="1"/>
<feComposite in2="hardAlpha" operator="out"/>
<feColorMatrix type="matrix" values="0 0 0 0 0.397708 0 0 0 0 0.691667 0 0 0 0 0.10375 0 0 0 0.22 0"/>
<feBlend mode="darken" in2="BackgroundImageFix" result="effect1_dropShadow_262_10018"/>
<feBlend mode="normal" in="SourceGraphic" in2="effect1_dropShadow_262_10018" result="shape"/>
</filter>
<linearGradient id="paint0_linear_262_10018" x1="0" y1="0" x2="48" y2="48" gradientUnits="userSpaceOnUse">
<stop stop-color="#71DD80"/>
<stop offset="1" stop-color="#119F53"/>
</linearGradient>
</defs>
</svg>
