<svg width="48" height="48" viewBox="0 0 48 48" fill="none" xmlns="http://www.w3.org/2000/svg">
<circle cx="24" cy="24" r="24" fill="white"/>
<path fill-rule="evenodd" clip-rule="evenodd" d="M11.5853 10.97C18.7771 4.11461 30.1664 4.38378 37.0218 11.5756C37.4676 12.0467 37.8966 12.5346 38.2835 13.0477L24.0007 27.3389L9.71791 13.0477C10.1133 12.5346 10.5338 12.0467 10.9796 11.5756C11.1731 11.3738 11.375 11.1719 11.5853 10.97ZM35.0703 12.9383C32.1262 9.97745 28.2065 8.35403 24.0007 8.35403C19.7949 8.35403 15.8752 9.97745 12.9311 12.9383L24.0007 24.0079L35.0703 12.9383Z" fill="#00193C"/>
<path d="M39.4022 14.6709L36.5002 17.5729C38.8386 20.3739 38.4685 24.5461 35.6675 26.8845C33.2113 28.9369 29.6448 28.9369 27.1887 26.8845L24.0007 30.0724L20.8211 26.8929C18.0201 29.2313 13.848 28.8612 11.5096 26.0601C9.45714 23.604 9.45714 20.0375 11.5096 17.5813L10.0207 16.0925L8.60758 14.6709C6.90003 17.4804 6 20.7104 6 23.9993C6 33.9418 14.0583 42 24.0007 42C33.9431 42 42.0014 33.9418 42.0014 23.9993C42.0098 20.7104 41.1013 17.4804 39.4022 14.6709Z" fill="#00193C"/>
<path d="M35.1208 18.9525C35.7517 19.7684 36.0966 20.7778 36.0966 21.8124C36.0966 22.847 35.7517 23.8564 35.1208 24.6723C33.5394 26.7163 30.6038 27.0948 28.5598 25.5135L35.1208 18.9525Z" fill="#00193C"/>
<path d="M19.4418 25.5219C18.6259 26.1527 17.6165 26.4976 16.5819 26.4976C15.5472 26.4976 14.5463 26.1527 13.7219 25.5303C11.6779 23.9489 11.2994 21.0049 12.8808 18.9609L19.4418 25.5219Z" fill="#00193C"/>
</svg>
