<svg width="48" height="48" viewBox="0 0 48 48" fill="none" xmlns="http://www.w3.org/2000/svg">
<path d="M0 24C0 10.7452 10.7452 0 24 0V0C37.2548 0 48 10.7452 48 24V24C48 37.2548 37.2548 48 24 48V48C10.7452 48 0 37.2548 0 24V24Z" fill="white"/>
<circle cx="24" cy="24" r="24" fill="#2A5ADA"/>
<path d="M24 7L20.8254 8.8254L12.1746 13.8254L9 15.6508V32.9524L12.1746 34.7778L20.9048 39.7778L24.0794 41.6032L27.254 39.7778L35.8254 34.7778L39 32.9524V15.6508L35.8254 13.8254L27.1746 8.8254L24 7ZM15.3492 29.3016V19.3016L24 14.3016L32.6508 19.3016V29.3016L24 34.3016L15.3492 29.3016Z" fill="white"/>
</svg>
