<svg width="48" height="48" viewBox="0 0 48 48" fill="none" xmlns="http://www.w3.org/2000/svg">
<circle cx="24" cy="24" r="24" fill="#ECECEC"/>
<path d="M15.2398 11.8628L38.4958 27.7419L32.7443 36.2441L9.48828 20.24L15.2398 11.8628Z" fill="url(#paint0_linear_278_3316)"/>
<path d="M38.4959 27.7418C36.4954 30.6176 29.7437 29.4923 23.367 24.9911C16.8653 20.615 13.3644 14.7385 15.2399 11.8627C17.2404 8.987 23.9922 10.1123 30.3688 14.6135C36.8705 18.8646 40.3714 24.8661 38.4959 27.7418Z" fill="url(#paint1_linear_278_3316)"/>
<path d="M32.7443 36.1188C30.7438 38.9946 23.9921 37.8693 17.6154 33.3681C11.2388 28.867 7.61282 23.1155 9.61334 20.1147C11.6139 17.239 18.3656 18.3642 24.7423 22.8654C31.1189 27.3666 34.6198 33.2431 32.7443 36.1188Z" fill="url(#paint2_linear_278_3316)"/>
<path d="M38.4956 27.7421L32.7441 36.2443C30.7436 39.12 23.9918 37.8697 17.6152 33.4936C16.3648 32.6184 15.2395 31.7431 14.1143 30.7429C14.9895 30.6178 16.1148 30.1177 17.2401 28.8674C19.2406 26.7418 20.2408 26.2417 21.1161 26.3667C21.9913 26.3667 22.9916 27.242 24.617 29.3675C26.2424 31.4931 28.493 32.1182 29.8683 30.9929C29.9934 30.8679 30.1184 30.8679 30.2434 30.7429C31.3687 29.8677 31.7438 29.4926 33.8694 25.4915C34.3695 24.4913 36.1199 22.8658 38.4956 23.616C39.1207 25.2415 39.1207 26.6168 38.4956 27.7421Z" fill="#0E0F23"/>
<path fill-rule="evenodd" clip-rule="evenodd" d="M37.6204 27.2417C35.8699 29.7424 29.7434 28.4921 23.8668 24.366C17.8653 20.2399 14.3644 14.9886 16.1148 12.4879C17.8653 9.98727 23.9919 11.2376 29.8684 15.3637C35.7449 19.4897 39.2458 24.7411 37.6204 27.2417ZM32.119 23.4908C31.2437 24.7411 28.243 24.1159 25.2422 22.1154C22.3665 20.1149 20.616 17.4892 21.4912 16.2389C22.3665 14.9886 25.3672 15.6137 28.368 17.6142C31.2437 19.6148 32.9942 22.2404 32.119 23.4908Z" fill="white"/>
<path d="M14.7399 14.7383C14.7399 14.6133 14.6148 14.4883 14.4898 14.6133C14.3648 14.7383 14.2397 14.7383 14.2397 14.8634C14.3648 15.2385 14.4898 15.4885 14.4898 15.7386C14.4898 15.8636 14.6148 15.9887 14.7399 15.8636C14.8649 15.8636 14.9899 15.7386 14.8649 15.6136C14.8649 15.3635 14.8649 15.1134 14.7399 14.7383Z" fill="white"/>
<path d="M15.3648 16.7393C15.3648 16.6143 15.2398 16.4893 15.1148 16.6143C14.9897 16.7393 14.9897 16.7393 14.9897 16.8644C16.3651 19.9902 19.2408 23.366 22.9918 25.8667C23.1168 25.9917 23.2419 25.8667 23.3669 25.8667C23.4919 25.7417 23.3669 25.6166 23.3669 25.4916C19.4909 22.9909 16.7402 19.7401 15.3648 16.7393Z" fill="white"/>
<path d="M30.4937 28.9922C30.3687 28.9922 30.2437 28.9922 30.2437 29.1172C30.2437 29.2423 30.2437 29.3673 30.3687 29.3673C30.7438 29.4923 31.2439 29.6173 31.619 29.7424C31.744 29.7424 31.8691 29.7424 31.8691 29.6173C31.8691 29.4923 31.8691 29.3673 31.744 29.3673C31.3689 29.2423 30.8688 29.1172 30.4937 28.9922Z" fill="white"/>
<path d="M32.7442 29.4922C32.6192 29.4922 32.4941 29.6172 32.4941 29.7423C32.4941 29.8673 32.6192 29.9923 32.7442 29.9923C33.7445 30.1173 34.8698 30.2424 35.745 30.1173C35.87 30.1173 35.995 29.9923 35.995 29.8673C35.995 29.7423 35.87 29.6172 35.745 29.6172C34.7447 29.7423 33.7445 29.6172 32.7442 29.4922Z" fill="white"/>
<defs>
<linearGradient id="paint0_linear_278_3316" x1="19.7962" y1="9.60508" x2="24.4081" y2="25.4419" gradientUnits="userSpaceOnUse">
<stop stop-color="#03B8FF"/>
<stop offset="1" stop-color="#FA52A0"/>
</linearGradient>
<linearGradient id="paint1_linear_278_3316" x1="23.5943" y1="8.49887" x2="28.2064" y2="24.3358" gradientUnits="userSpaceOnUse">
<stop stop-color="#03B8FF"/>
<stop offset="1" stop-color="#FA52A0"/>
</linearGradient>
<linearGradient id="paint2_linear_278_3316" x1="16.01" y1="10.7074" x2="20.6221" y2="26.5444" gradientUnits="userSpaceOnUse">
<stop stop-color="#03B8FF"/>
<stop offset="1" stop-color="#FA52A0"/>
</linearGradient>
</defs>
</svg>
