<svg width="48" height="48" viewBox="0 0 48 48" fill="none" xmlns="http://www.w3.org/2000/svg">
<circle cx="24" cy="24" r="24" fill="white"/>
<path fill-rule="evenodd" clip-rule="evenodd" d="M9.52579 7.6641C13.1243 12.0348 18.6687 18.8302 18.9467 19.2009C19.1784 19.5098 19.0857 19.8032 18.6996 20.0194C18.4834 20.143 18.0355 20.2665 17.8193 20.2665C17.5722 20.2665 17.2788 20.143 17.078 19.9422C16.939 19.8032 16.3367 18.9229 14.9776 16.807C13.9428 15.1854 13.0625 13.8418 13.0471 13.8263C12.9853 13.7954 12.9853 13.7954 14.8695 17.1623C16.0587 19.2781 16.4448 20.0349 16.4448 20.1275C16.4448 20.3283 16.383 20.4364 16.1359 20.7144C15.7189 21.1777 15.5336 21.7028 15.3946 22.7994C15.2401 24.0195 14.8231 24.8843 13.6339 26.3515C12.9389 27.2164 12.8308 27.3708 12.661 27.7261C12.4447 28.1585 12.383 28.4056 12.3521 28.9616C12.3212 29.5485 12.383 29.9191 12.5528 30.4751C12.7073 30.9693 12.8772 31.2937 13.2942 31.9269C13.6494 32.4829 13.8656 32.8998 13.8656 33.0543C13.8656 33.1778 13.8965 33.1778 14.4525 33.0543C15.7807 32.7454 16.8772 32.2203 17.4795 31.5717C17.8502 31.1701 17.9429 30.9539 17.9429 30.3979C17.9429 30.0427 17.9274 29.9655 17.8347 29.7492C17.6803 29.4095 17.3869 29.1315 16.7537 28.699C15.9197 28.1276 15.5645 27.6643 15.4718 27.0465C15.3946 26.5214 15.4872 26.1662 15.9506 25.1932C16.4293 24.1893 16.5529 23.7724 16.6301 22.753C16.6764 22.1044 16.7537 21.8418 16.939 21.6411C17.1398 21.4248 17.3096 21.3476 17.7884 21.2858C18.5761 21.1777 19.0857 20.977 19.4873 20.5909C19.8425 20.2665 19.9969 19.9422 20.0124 19.4634L20.0278 19.1082L19.827 18.892C19.1012 18.058 9.04702 7 9.00069 7C8.99125 7 9.07979 7.10949 9.21701 7.2792C9.30442 7.38731 9.4116 7.51986 9.52579 7.6641ZM14.2671 29.6257C14.437 29.3322 14.3444 28.9616 14.0664 28.7763C13.8038 28.6064 13.4023 28.6836 13.4023 28.9153C13.4023 28.977 13.4332 29.0388 13.5258 29.0697C13.6648 29.1469 13.6803 29.2241 13.5722 29.394C13.464 29.5639 13.464 29.7184 13.603 29.8265C13.8193 29.9963 14.1127 29.9037 14.2671 29.6257Z" fill="#FF007A"/>
<path d="M19.1937 13.8108C18.8694 13.7645 18.8539 13.749 19.0084 13.7336C19.3018 13.6872 19.9814 13.749 20.4601 13.8571C21.5721 14.1197 22.576 14.7992 23.6416 15.9884L23.9196 16.3127L24.3212 16.251C26.0355 15.973 27.7961 16.1892 29.2633 16.8687C29.6649 17.0541 30.2981 17.4247 30.3753 17.5174C30.4062 17.5483 30.4525 17.7491 30.4834 17.9498C30.5915 18.6757 30.5452 19.2163 30.3135 19.6332C30.19 19.8649 30.19 19.9267 30.2672 20.1275C30.329 20.2819 30.5143 20.39 30.6842 20.39C31.0548 20.39 31.4409 19.8031 31.6263 18.9846L31.7035 18.6603L31.8425 18.8147C32.6301 19.695 33.2479 20.9151 33.3406 21.78L33.3714 22.0116L33.2325 21.8109C33.0008 21.4557 32.7846 21.224 32.4911 21.0232C31.966 20.668 31.41 20.5599 29.9428 20.4827C28.6147 20.4055 27.8579 20.2973 27.1166 20.0502C25.8501 19.6332 25.2015 19.0927 23.7034 17.1004C23.0393 16.2201 22.6223 15.7413 22.2053 15.3398C21.2941 14.4595 20.3829 13.9961 19.1937 13.8108Z" fill="#FF007A"/>
<path d="M30.6995 15.7723C30.7304 15.1854 30.8077 14.7993 30.9775 14.4441C31.0393 14.3051 31.1011 14.1816 31.1165 14.1816C31.132 14.1816 31.1011 14.2897 31.0548 14.4132C30.9312 14.753 30.9158 15.2318 30.993 15.7723C31.1011 16.4673 31.1474 16.56 31.8887 17.3167C32.2285 17.672 32.6301 18.1198 32.7845 18.3052L33.0471 18.6449L32.7845 18.3978C32.4602 18.0889 31.7189 17.5021 31.549 17.4248C31.4409 17.3631 31.4254 17.3631 31.3482 17.4403C31.2864 17.5021 31.271 17.5947 31.271 18.0426C31.2555 18.7376 31.1629 19.17 30.9312 19.6179C30.8077 19.8496 30.7922 19.8032 30.9003 19.5407C30.9775 19.3399 30.993 19.2473 30.993 18.5832C30.993 17.2395 30.8385 16.9152 29.8964 16.3746C29.6648 16.2356 29.2632 16.0349 29.0316 15.9268C28.7845 15.8187 28.5991 15.726 28.6146 15.726C28.6455 15.6951 29.5567 15.9577 29.9119 16.1121C30.4524 16.3283 30.5451 16.3438 30.6069 16.3283C30.6532 16.282 30.6841 16.1584 30.6995 15.7723Z" fill="#FF007A"/>
<path d="M18.854 14.7531C18.7613 15.7878 19.1783 17.1778 19.8269 18.0736C20.3366 18.7686 21.1243 19.3091 21.7111 19.3709C22.0972 19.4018 22.2053 19.2782 22.0355 19.0311C21.7884 18.6913 21.4949 18.1508 21.4177 17.9191C21.3714 17.7801 21.2633 17.3477 21.186 16.977C20.9235 15.7106 20.6455 15.201 20.0277 14.8303C19.7961 14.6913 19.3173 14.506 19.0393 14.4596L18.8849 14.4287L18.854 14.7531Z" fill="#FF007A"/>
<path d="M29.912 24.7916C26.8541 23.5561 25.773 22.4905 25.773 20.6835C25.773 20.4209 25.7884 20.2047 25.7884 20.2047C25.7987 20.2047 25.8502 20.2459 25.9246 20.3054C25.9617 20.3351 26.0046 20.3695 26.051 20.4055C26.6687 20.8997 27.3637 21.1159 29.2942 21.3939C30.4217 21.5638 31.0703 21.6874 31.6572 21.8881C33.5259 22.5059 34.6843 23.7723 34.9622 25.4866C35.0395 25.9808 34.9931 26.9229 34.8696 27.4171C34.7615 27.8032 34.4526 28.5137 34.3754 28.5291C34.3599 28.5291 34.329 28.4519 34.329 28.3283C34.2981 27.6797 33.9738 27.0619 33.4333 26.5832C32.7846 26.0272 31.9506 25.6102 29.912 24.7916Z" fill="#FF007A"/>
<path d="M27.5954 24.6525C27.6417 24.7761 27.7189 25.0695 27.7498 25.3012C27.9969 26.753 27.2402 27.9422 25.7112 28.4209C25.5567 28.4827 24.939 28.6063 24.3367 28.6989C23.1166 28.9151 22.5606 29.0541 22.02 29.3167C21.6339 29.502 21.1552 29.78 21.186 29.8109C21.2015 29.8263 21.2942 29.7954 21.3868 29.7646C22.0818 29.5175 22.854 29.3939 24.0123 29.3321C24.4001 29.3063 24.8312 29.2696 25.0701 29.2493L25.1861 29.2395C26.2208 29.1005 26.9467 28.7916 27.5027 28.2201C27.8116 27.8958 27.9969 27.6024 28.1514 27.1854C28.244 26.9228 28.2595 26.8147 28.2595 26.3514C28.2595 25.8726 28.2595 25.78 28.1514 25.4865C28.0124 25.1004 27.8579 24.8224 27.6571 24.5908L27.5181 24.4209L27.5954 24.6525Z" fill="#FF007A"/>
<path d="M29.1553 27.7877C28.7537 26.9074 28.6611 26.0734 28.8773 25.2857C28.9082 25.2085 28.9391 25.1313 28.9699 25.1313C29.0008 25.1313 29.0935 25.1776 29.1862 25.2394C29.3715 25.363 29.7576 25.5792 30.746 26.1197C31.997 26.7993 32.7074 27.3244 33.2016 27.9267C33.6341 28.4518 33.8966 29.0541 34.0202 29.7954C34.0974 30.2124 34.0511 31.2163 33.943 31.6333C33.6032 32.946 32.831 33.9962 31.7036 34.5986C31.5337 34.6912 31.3947 34.753 31.3792 34.753C31.3638 34.753 31.4256 34.5986 31.5182 34.4132C31.8889 33.6256 31.9352 32.8688 31.6572 32.0194C31.4873 31.4943 31.1321 30.8611 30.4217 29.7954C29.5723 28.5599 29.3715 28.2356 29.1553 27.7877Z" fill="#FF007A"/>
<path d="M21.495 30.6604C20.1977 30.8766 18.7923 31.5562 17.6494 32.5137L17.3251 32.8226L17.6185 32.8689C19.1629 33.1006 19.5799 33.3168 20.661 34.4288C21.2788 35.062 21.495 35.201 22.0047 35.34C22.7614 35.5408 23.5028 35.1855 23.7653 34.506C23.8734 34.1971 23.858 33.7029 23.7344 33.4558C23.4255 32.8535 22.5143 32.6681 22.0819 33.1006C21.7267 33.4558 21.8348 34.0118 22.2827 34.1044C22.3753 34.1199 22.3753 34.1199 22.2518 34.0581C22.051 33.9655 21.9583 33.8419 21.9583 33.6411C21.9429 33.1624 22.4834 32.9152 22.9777 33.1315C23.3483 33.3014 23.4873 33.5176 23.4873 33.8882C23.4873 34.4597 22.9931 34.9075 22.4217 34.8303C22.1128 34.784 21.7421 34.5987 21.5413 34.367C21.0471 33.811 21.2325 32.8998 21.9429 32.56C22.4834 32.2975 23.1939 32.3747 23.7499 32.7299C24.3831 33.1469 24.6611 33.5176 25.2016 34.7685C25.3869 35.1855 25.6032 35.6334 25.7113 35.7879C26.2209 36.5601 26.8541 36.9462 27.5955 36.9462C28.0124 36.9462 28.3213 36.8844 28.7074 36.6836C28.9854 36.5446 29.4024 36.2666 29.3715 36.2357C29.3715 36.2236 29.2948 36.2498 29.1943 36.2841C29.1673 36.2933 29.1384 36.3031 29.109 36.313C28.2904 36.6218 27.4565 36.6064 26.9777 36.2512C26.6688 36.0195 26.4217 35.5871 26.2981 35.0311C26.2952 35.0133 26.29 34.9831 26.283 34.9429C26.2537 34.7733 26.1936 34.4261 26.1437 34.089C25.9738 33.0234 25.8039 32.5446 25.4333 31.9886C25.0472 31.4172 24.3058 30.9538 23.4873 30.7376C22.9777 30.5986 22.051 30.5677 21.495 30.6604Z" fill="#FF007A"/>
<path fill-rule="evenodd" clip-rule="evenodd" d="M19.688 22.4133C19.7961 22.0118 20.1514 21.6102 20.522 21.5021C20.7691 21.4249 21.2479 21.4712 21.4796 21.5948C21.9274 21.8264 22.2518 22.3361 22.1745 22.7068C22.0973 23.1546 21.3714 23.5253 20.522 23.5253C20.0896 23.5253 19.9351 23.4635 19.7653 23.2473C19.6571 23.1083 19.6263 22.6604 19.688 22.4133ZM21.356 21.7492C21.5877 21.8882 21.634 22.089 21.5104 22.2743C21.4178 22.3979 21.1398 22.5214 20.939 22.5214C20.6301 22.5214 20.3058 22.3052 20.3058 22.1044C20.3058 21.7029 20.939 21.4867 21.356 21.7492Z" fill="#FF007A"/>
</svg>
