<svg width="48" height="48" viewBox="0 0 48 48" fill="none" xmlns="http://www.w3.org/2000/svg">
<circle cx="24" cy="24" r="24" fill="#50AF95"/>
<path fill-rule="evenodd" clip-rule="evenodd" d="M27.052 24.8544C26.8815 24.8672 26.0008 24.9197 24.0362 24.9197C22.4737 24.9197 21.3642 24.8729 20.975 24.8544C14.9364 24.5888 10.429 23.5376 10.429 22.279C10.429 21.0204 14.9364 19.9706 20.975 19.7007V23.8075C21.3699 23.8359 22.5006 23.9026 24.0632 23.9026C25.9383 23.9026 26.8773 23.8245 27.0463 23.8089V19.7036C33.0722 19.9721 37.5695 21.0233 37.5695 22.279C37.5695 23.5347 33.0736 24.5859 27.0463 24.853L27.052 24.8544ZM27.052 19.2788V15.604H35.4615V10H12.5655V15.604H20.9736V19.2774C14.1394 19.5914 9 20.9451 9 22.5674C9 24.1896 14.1394 25.5419 20.9736 25.8573V37.6334H27.0506V25.853C33.8691 25.5391 39 24.1868 39 22.5659C39 20.9451 33.8733 19.5928 27.0506 19.2774L27.052 19.2788Z" fill="white"/>
</svg>
