<svg width="48" height="48" viewBox="0 0 48 48" fill="none" xmlns="http://www.w3.org/2000/svg">
<circle cx="24" cy="24" r="24" fill="black"/>
<path fill-rule="evenodd" clip-rule="evenodd" d="M28.0849 20.6769C28.0849 23.3326 23.9426 23.0104 22.6286 23.0104V18.3319C23.9449 18.3319 28.0849 17.9154 28.0849 20.6769ZM29.1665 27.9397C29.1665 30.8416 24.2049 30.5102 22.624 30.5102V25.3715C24.2049 25.3715 29.1665 24.9112 29.1665 27.9512V27.9397ZM32.4343 19.6413C32.1696 16.8568 29.7855 15.9363 26.7685 15.6463V11.8285H24.4512V15.5704C23.8367 15.5704 23.2108 15.5704 22.5871 15.5934V11.8285H20.2582V15.6693H15.5337V18.1685C15.5337 18.1685 17.2551 18.1386 17.2298 18.1685C17.5404 18.1343 17.8522 18.2223 18.0992 18.4138C18.3461 18.6054 18.5089 18.8855 18.553 19.1949V29.714C18.5465 29.8223 18.5188 29.9282 18.4713 30.0257C18.4238 30.1232 18.3576 30.2104 18.2763 30.2822C18.1951 30.354 18.1004 30.4091 17.9979 30.4443C17.8953 30.4795 17.7867 30.4941 17.6785 30.4872C17.7084 30.5148 15.9825 30.4872 15.9825 30.4872L15.5222 33.2787H20.2283V37.1908H22.5595V33.3362H24.4212V37.1655H26.7524V33.3063C30.6899 33.0762 33.4261 32.0935 33.7805 28.4C34.059 25.4244 32.6644 24.0989 30.4345 23.5673C31.7899 22.8769 32.6414 21.6595 32.4389 19.6344" fill="white"/>
<path d="M11.3498 9.96448C13.7127 7.82694 16.5813 6.32664 19.6848 5.60512C22.7883 4.88359 26.0245 4.96463 29.088 5.84059L29.355 5.91653C29.4884 5.95565 29.6196 5.99708 29.7508 6.0408C29.9395 6.10063 30.1282 6.16507 30.3123 6.23181L30.4964 6.29854C30.7472 6.3906 30.9981 6.48955 31.2443 6.59311L31.2742 6.60692C33.2372 7.45084 35.0612 8.5867 36.6845 9.97598L37.7109 8.86677C37.5728 8.72869 37.4301 8.60212 37.2898 8.47095C33.7362 5.39262 29.2266 3.63948 24.5269 3.5094C24.2761 3.5094 24.0252 3.5094 23.7744 3.5094H23.7215C22.1971 3.53051 20.6795 3.71568 19.1948 4.06171L18.8911 4.13535L18.6379 4.20208C17.1585 4.59873 15.7288 5.16152 14.376 5.87971C12.8946 6.675 11.5461 7.69594 10.3787 8.90589L11.3498 9.96448Z" fill="#6F6F6F"/>
<path d="M10.0497 11.2556L8.92205 10.2683C1.27262 18.286 2.38643 31.3319 8.92205 37.5499L10.0727 36.6501C6.89148 33.188 5.12441 28.6586 5.12058 23.9569C5.11675 19.2551 6.87642 14.7229 10.052 11.2556H10.0497Z" fill="#6F6F6F"/>
<path d="M39.5589 10.7676C39.3817 10.5835 39.2022 10.4017 39.0158 10.2291L38.0286 11.3107C43.8278 17.8993 45.0521 28.3586 38.2104 36.4107L39.1723 37.5729C42.4592 33.9035 44.3094 29.17 44.3822 24.2443C44.4549 19.3185 42.7452 14.5324 39.5681 10.7676H39.5589Z" fill="#6F6F6F"/>
<path d="M36.7582 37.9503C36.0908 38.4497 35.4281 38.9076 34.763 39.3311C32.3495 41.0368 29.5666 42.1471 26.6418 42.5713C25.1453 42.8099 23.6235 42.8455 22.1175 42.6771C18.3243 42.3093 14.7335 40.7936 11.8239 38.3323C11.672 38.2219 11.5224 38.1137 11.3636 37.9986L10.3027 38.9491C14.0147 42.615 19.1028 44.3778 24.1104 44.3755C24.2208 44.3755 24.3405 44.3755 24.4418 44.3755H24.4947C29.1527 44.254 33.6279 42.5375 37.1724 39.5129C37.3335 39.361 37.4969 39.2114 37.6511 39.0526L36.7582 37.9503Z" fill="#6F6F6F"/>
<path d="M23.9908 1.61089C28.4197 1.60907 32.7497 2.92086 36.433 5.3803C40.1163 7.83975 42.9874 11.3364 44.6831 15.4278C46.3788 19.5193 46.8229 24.0217 45.9594 28.3656C45.0958 32.7096 42.9632 36.6998 39.8315 39.8315C36.6998 42.9632 32.7096 45.0958 28.3656 45.9593C24.0217 46.8229 19.5193 46.3788 15.4278 44.6831C11.3364 42.9874 7.83976 40.1163 5.38031 36.433C2.92086 32.7497 1.60908 28.4197 1.6109 23.9908C1.62003 18.0581 3.98084 12.371 8.17591 8.1759C12.371 3.98083 18.0581 1.62002 23.9908 1.61089V1.61089ZM23.9908 1.76613e-06C19.244 0.00182271 14.6044 1.41118 10.6587 4.04984C6.7129 6.68851 3.6382 10.438 1.82338 14.8241C0.00855964 19.2102 -0.464869 24.036 0.462962 28.6912C1.39079 33.3464 3.67821 37.6219 7.03596 40.9771C10.3937 44.3322 14.671 46.6164 19.3269 47.5406C23.9828 48.4649 28.8082 47.9878 33.1929 46.1696C37.5776 44.3514 41.3247 41.2738 43.9604 37.326C46.596 33.3782 48.0018 28.7375 48 23.9908C47.9988 20.8391 47.3768 17.7184 46.1696 14.8071C44.9624 11.8957 43.1935 9.25068 40.9641 7.02293C38.7346 4.79518 36.0882 3.02837 33.1759 1.82337C30.2636 0.618374 27.1425 -0.0012073 23.9908 1.76613e-06V1.76613e-06Z" fill="white"/>
</svg>
