<svg width="48" height="48" viewBox="0 0 48 48" fill="none" xmlns="http://www.w3.org/2000/svg">
<path fill-rule="evenodd" clip-rule="evenodd" d="M28.0846 20.677C28.0846 23.3327 23.9423 23.0105 22.6283 23.0105V18.332C23.9446 18.332 28.0846 17.9155 28.0846 20.677ZM29.1662 27.9398C29.1662 30.8417 24.2047 30.5104 22.6237 30.5104V25.3716C24.2047 25.3716 29.1662 24.9114 29.1662 27.9513V27.9398ZM32.434 19.6414C32.1694 16.8569 29.7853 15.9364 26.7683 15.6464V11.8286H24.4509V15.5705C23.8365 15.5705 23.2105 15.5705 22.5869 15.5935V11.8286H20.258V15.6694H15.5335V18.1686C15.5335 18.1686 17.2548 18.1387 17.2295 18.1686C17.5402 18.1344 17.852 18.2224 18.0989 18.4139C18.3459 18.6055 18.5086 18.8856 18.5528 19.195V29.7141C18.5463 29.8224 18.5185 29.9283 18.4711 30.0258C18.4236 30.1233 18.3573 30.2105 18.2761 30.2823C18.1948 30.3542 18.1002 30.4093 17.9976 30.4444C17.895 30.4796 17.7865 30.4942 17.6783 30.4873C17.7082 30.515 15.9822 30.4873 15.9822 30.4873L15.522 33.2788H20.2281V37.191H22.5593V33.3363H24.421V37.1656H26.7522V33.3064C30.6897 33.0763 33.4259 32.0936 33.7803 28.4001C34.0587 25.4245 32.6642 24.099 30.4342 23.5674C31.7897 22.877 32.6412 21.6597 32.4386 19.6345" fill="white"/>
<path d="M11.35 9.9646C13.713 7.82707 16.5815 6.32676 19.685 5.60524C22.7886 4.88371 26.0247 4.96475 29.0883 5.84071L29.3552 5.91665C29.4887 5.95578 29.6199 5.9972 29.751 6.04092C29.9397 6.10076 30.1284 6.16519 30.3125 6.23193L30.4967 6.29867C30.7475 6.39072 30.9983 6.48967 31.2446 6.59323L31.2745 6.60704C33.2374 7.45096 35.0615 8.58682 36.6848 9.9761L37.7111 8.86689C37.5731 8.72881 37.4304 8.60224 37.29 8.47107C33.7365 5.39274 29.2268 3.63961 24.5271 3.50952C24.2763 3.50952 24.0255 3.50952 23.7746 3.50952H23.7217C22.1974 3.53063 20.6798 3.7158 19.1951 4.06183L18.8913 4.13547L18.6382 4.2022C17.1588 4.59886 15.729 5.16165 14.3762 5.87983C12.8949 6.67512 11.5463 7.69606 10.3789 8.90601L11.35 9.9646Z" fill="#6F6F6F"/>
<path d="M10.0494 11.2556L8.92181 10.2683C1.27237 18.286 2.38619 31.3319 8.92181 37.5499L10.0724 36.6501C6.89124 33.188 5.12417 28.6586 5.12034 23.9569C5.1165 19.2551 6.87618 14.7229 10.0517 11.2556H10.0494Z" fill="#6F6F6F"/>
<path d="M39.5587 10.7677C39.3815 10.5836 39.202 10.4018 39.0156 10.2292L38.0283 11.3108C43.8275 17.8994 45.0518 28.3587 38.2101 36.4109L39.1721 37.573C42.4589 33.9036 44.3092 29.1701 44.3819 24.2444C44.4546 19.3187 42.745 14.5326 39.5679 10.7677H39.5587Z" fill="#6F6F6F"/>
<path d="M36.7582 37.9502C36.0908 38.4496 35.4281 38.9075 34.763 39.331C32.3495 41.0367 29.5666 42.147 26.6418 42.5712C25.1453 42.8098 23.6235 42.8454 22.1175 42.677C18.3243 42.3091 14.7335 40.7935 11.8239 38.3322C11.672 38.2217 11.5224 38.1136 11.3636 37.9985L10.3027 38.9489C14.0147 42.6149 19.1028 44.3777 24.1104 44.3754C24.2208 44.3754 24.3405 44.3754 24.4418 44.3754H24.4947C29.1527 44.2539 33.6279 42.5374 37.1724 39.5128C37.3335 39.3609 37.4969 39.2113 37.6511 39.0525L36.7582 37.9502Z" fill="#6F6F6F"/>
<path d="M23.9908 1.61089C28.4197 1.60907 32.7497 2.92086 36.433 5.3803C40.1163 7.83975 42.9874 11.3364 44.6831 15.4278C46.3788 19.5193 46.8229 24.0217 45.9594 28.3656C45.0958 32.7096 42.9632 36.6998 39.8315 39.8315C36.6998 42.9632 32.7096 45.0958 28.3656 45.9593C24.0217 46.8229 19.5193 46.3788 15.4278 44.6831C11.3364 42.9874 7.83976 40.1163 5.38031 36.433C2.92086 32.7497 1.60908 28.4197 1.6109 23.9908C1.62003 18.0581 3.98084 12.371 8.17591 8.1759C12.371 3.98083 18.0581 1.62002 23.9908 1.61089V1.61089ZM23.9908 1.76613e-06C19.244 0.00182271 14.6044 1.41118 10.6587 4.04984C6.7129 6.68851 3.6382 10.438 1.82338 14.8241C0.00855964 19.2102 -0.464869 24.036 0.462962 28.6912C1.39079 33.3464 3.67821 37.6219 7.03596 40.9771C10.3937 44.3322 14.671 46.6164 19.3269 47.5406C23.9828 48.4649 28.8082 47.9878 33.1929 46.1696C37.5776 44.3514 41.3247 41.2738 43.9604 37.326C46.596 33.3782 48.0018 28.7375 48 23.9908C47.9988 20.8391 47.3768 17.7184 46.1696 14.8071C44.9624 11.8957 43.1935 9.25068 40.9641 7.02293C38.7346 4.79518 36.0882 3.02837 33.1759 1.82337C30.2636 0.618374 27.1425 -0.0012073 23.9908 1.76613e-06V1.76613e-06Z" fill="white"/>
</svg>
