<svg width="118" height="118" viewBox="56 24 118 118" fill="none" xmlns="http://www.w3.org/2000/svg">
<g filter="url(#filter0_d_9224_28096)">
<circle cx="115" cy="83" r="59" fill="#FFC552"/>
<mask id="mask0_9224_28096" style="mask-type:alpha" maskUnits="userSpaceOnUse" x="65" y="33" width="100" height="100">
<circle cx="115" cy="83" r="49.2562" fill="#F1487F" stroke="black" stroke-width="1.48767"/>
</mask>
<g mask="url(#mask0_9224_28096)">
<circle cx="114.771" cy="83" r="50" fill="#FFAA00"/>
<path fill-rule="evenodd" clip-rule="evenodd" d="M113.5 131.5C141.114 131.5 163.5 109.114 163.5 81.4997C163.5 68.0712 158.206 55.8791 149.592 46.8965C159.088 55.9973 165 68.8078 165 82.9992C165 110.613 142.614 132.999 115 132.999C100.814 132.999 88.0084 127.092 78.9082 117.602C87.8898 126.21 100.077 131.5 113.5 131.5Z" fill="#FFF2C6"/>
<path fill-rule="evenodd" clip-rule="evenodd" d="M151.341 48.6587C142.384 40.1917 130.298 35 117 35C89.3858 35 67 57.3858 67 85C67 98.2984 72.1917 110.384 80.6587 119.341C71.0164 110.226 65 97.3158 65 83C65 55.3858 87.3858 33 115 33C129.316 33 142.226 39.0164 151.341 48.6587Z" fill="#E8760D"/>
</g>
<path d="M114.757 100.579C115.662 100.579 116.522 100.39 117.306 100.051C117.334 100.038 117.364 100.032 117.391 100.032C117.561 100.032 117.673 100.255 117.536 100.402C116.832 101.146 115.848 101.61 114.757 101.61C113.666 101.61 112.68 101.146 111.978 100.402C111.819 100.232 111.996 99.959 112.208 100.051C112.992 100.39 113.852 100.579 114.757 100.579Z" fill="#E77105" fill-opacity="0.5"/>
<path fill-rule="evenodd" clip-rule="evenodd" d="M110.078 57.9104L110.094 57.9028C111.629 57.2535 113.258 56.9297 114.887 56.9297C116.522 56.9297 118.157 57.2566 119.696 57.9104C122.914 59.2746 125.432 61.9449 126.65 65.2827L137.338 95.6886C137.387 95.8291 137.432 95.9743 137.463 96.1209C137.618 96.8358 137.702 97.5798 137.702 98.3436C137.702 101.322 136.385 103.93 134.501 105.892C134.449 105.945 134.399 106 134.352 106.057C134.025 106.446 133.718 106.768 133.375 107.103L121.655 118.128C120.41 119.344 118.875 120.202 117.201 120.618C115.687 120.994 114.108 120.994 112.594 120.618C110.921 120.202 109.385 119.344 108.139 118.128L96.4199 107.103C96.3422 107.028 96.2676 106.952 96.1944 106.875C96.0481 106.721 95.8913 106.579 95.7241 106.448C93.3455 104.581 91.8105 101.646 91.8105 98.3421C91.8105 96.8969 92.1047 95.5236 92.6348 94.2771L103.102 65.3011C104.322 61.9525 106.848 59.2746 110.078 57.9104ZM108.974 110.777C108.51 111.162 108.51 111.886 108.974 112.271C110.554 113.58 112.565 114.365 114.756 114.365C116.946 114.365 118.957 113.58 120.537 112.271C121.001 111.886 121.001 111.162 120.537 110.777C118.957 109.468 116.948 108.683 114.756 108.683C112.564 108.683 110.554 109.468 108.974 110.777ZM100.159 103.568L105.919 109.462C106.183 109.731 106.533 109.871 106.885 109.871C107.178 109.871 107.472 109.773 107.714 109.572C109.703 107.922 112.163 107.027 114.759 107.027C117.354 107.027 119.814 107.923 121.803 109.572C122.335 110.013 123.111 109.957 123.595 109.462L129.355 103.568C129.902 103.009 129.889 102.085 129.308 101.561C125.282 97.9327 120.17 95.9513 114.757 95.9513C109.344 95.9513 104.232 97.9327 100.206 101.561C99.6256 102.083 99.6107 103.007 100.159 103.568ZM123.592 80.1282C123.108 79.6317 122.332 79.5752 121.8 80.0167C119.811 81.665 117.351 82.5617 114.754 82.5602C112.159 82.5602 109.698 81.665 107.709 80.0167C107.178 79.5767 106.401 79.6332 105.918 80.1282L100.157 86.0218C99.6092 86.5809 99.6241 87.5051 100.205 88.0291C104.23 91.6572 109.343 93.6385 114.756 93.6385C120.168 93.6385 125.282 91.6572 129.306 88.0291C129.887 87.5066 129.902 86.5824 129.354 86.0218L123.592 80.1282Z" fill="#E77105" fill-opacity="0.5"/>
<path d="M114.757 95.2062C115.662 95.2062 116.522 95.0168 117.306 94.6776C117.334 94.6654 117.364 94.6593 117.391 94.6593C117.561 94.6593 117.673 94.8823 117.536 95.029C116.832 95.7729 115.848 96.2373 114.757 96.2373C113.666 96.2373 112.68 95.7729 111.978 95.029C111.819 94.8594 111.996 94.586 112.208 94.6776C112.992 95.0168 113.852 95.2062 114.757 95.2062Z" fill="white"/>
<path fill-rule="evenodd" clip-rule="evenodd" d="M110.078 52.5374L110.094 52.5297C111.629 51.8805 113.258 51.5566 114.887 51.5566C116.522 51.5566 118.157 51.8836 119.696 52.5374C122.914 53.9015 125.432 56.5718 126.65 59.9097L137.338 90.3155C137.387 90.4561 137.432 90.6012 137.463 90.7479C137.618 91.4628 137.702 92.2067 137.702 92.9706C137.702 95.9494 136.385 98.5571 134.501 100.519C134.449 100.572 134.399 100.627 134.352 100.684C134.025 101.073 133.718 101.395 133.375 101.73L121.655 112.755C120.41 113.971 118.875 114.829 117.201 115.245C115.687 115.621 114.108 115.621 112.594 115.245C110.921 114.829 109.385 113.971 108.139 112.755L96.4199 101.73C96.3422 101.655 96.2676 101.579 96.1944 101.502C96.0481 101.348 95.8913 101.206 95.7241 101.075C93.3455 99.2078 91.8105 96.2733 91.8105 92.969C91.8105 91.5239 92.1047 90.1506 92.6348 88.904L103.102 59.928C104.322 56.5795 106.848 53.9015 110.078 52.5374ZM108.974 105.404C108.51 105.789 108.51 106.513 108.974 106.898C110.554 108.207 112.565 108.992 114.756 108.992C116.946 108.992 118.957 108.207 120.537 106.898C121.001 106.513 121.001 105.789 120.537 105.404C118.957 104.095 116.948 103.31 114.756 103.31C112.564 103.31 110.554 104.095 108.974 105.404ZM100.159 98.195L105.919 104.089C106.183 104.357 106.533 104.498 106.885 104.498C107.178 104.498 107.472 104.4 107.714 104.199C109.703 102.549 112.163 101.654 114.759 101.654C117.354 101.654 119.814 102.55 121.803 104.199C122.335 104.64 123.111 104.584 123.595 104.089L129.355 98.195C129.902 97.6359 129.889 96.7117 129.308 96.1877C125.282 92.5596 120.17 90.5783 114.757 90.5783C109.344 90.5783 104.232 92.5596 100.206 96.1877C99.6256 96.7102 99.6107 97.6344 100.159 98.195ZM123.592 74.7551C123.108 74.2587 122.332 74.2021 121.8 74.6436C119.811 76.2919 117.351 77.1887 114.754 77.1871C112.159 77.1871 109.698 76.2919 107.709 74.6436C107.178 74.2037 106.401 74.2602 105.918 74.7551L100.157 80.6487C99.6092 81.2078 99.6241 82.132 100.205 82.656C104.23 86.2841 109.343 88.2655 114.756 88.2655C120.168 88.2655 125.282 86.2841 129.306 82.656C129.887 82.1336 129.902 81.2094 129.354 80.6487L123.592 74.7551Z" fill="white"/>
</g>
<defs>
<filter id="filter0_d_9224_28096" x="0" y="0" width="230" height="230" filterUnits="userSpaceOnUse" color-interpolation-filters="sRGB">
<feFlood flood-opacity="0" result="BackgroundImageFix"/>
<feColorMatrix in="SourceAlpha" type="matrix" values="0 0 0 0 0 0 0 0 0 0 0 0 0 0 0 0 0 0 127 0" result="hardAlpha"/>
<feOffset dy="32"/>
<feGaussianBlur stdDeviation="28"/>
<feComposite in2="hardAlpha" operator="out"/>
<feColorMatrix type="matrix" values="0 0 0 0 0.0509804 0 0 0 0 0.0313726 0 0 0 0 0.027451 0 0 0 0.5 0"/>
<feBlend mode="normal" in2="BackgroundImageFix" result="effect1_dropShadow_9224_28096"/>
<feBlend mode="normal" in="SourceGraphic" in2="effect1_dropShadow_9224_28096" result="shape"/>
</filter>
</defs>
</svg>
