<svg width="48" height="48" viewBox="0 0 48 48" fill="none" xmlns="http://www.w3.org/2000/svg">
<mask id="mask0_180_14869" style="mask-type:alpha" maskUnits="userSpaceOnUse" x="0" y="0" width="48" height="48">
<path d="M24 48C37.2548 48 48 37.2548 48 24C48 10.7452 37.2548 0 24 0C10.7452 0 0 10.7452 0 24C0 37.2548 10.7452 48 24 48Z" fill="#C4C4C4"/>
</mask>
<g mask="url(#mask0_180_14869)">
<path d="M48 24C48 10.7452 37.2548 0 24 0C10.7452 0 0 10.7452 0 24C0 37.2548 10.7452 48 24 48C37.2548 48 48 37.2548 48 24Z" fill="url(#paint0_radial_180_14869)"/>
<path d="M40.3202 16.5079C40.2196 17.0954 40.1021 17.3803 39.9643 17.71L39.964 17.7107C39.8154 18.0681 39.6469 18.4738 39.4941 19.2785C39.4334 19.6006 39.403 19.8369 39.3765 20.0451L39.3749 20.058L39.3733 20.0702C39.3308 20.4038 39.3024 20.6285 39.1669 21.0283C39.0569 21.3549 38.873 21.8997 38.4299 22.4867C38.0724 22.9616 37.4735 23.7565 36.6745 23.8519C36.6053 23.8565 36.46 23.8638 36.4009 23.8336C34.1341 22.676 32.1865 21.8207 31.5123 21.6287C30.7281 21.4066 30.8285 19.697 30.9172 18.1887C30.9571 17.5146 30.9947 16.8771 30.9631 16.3313C30.853 14.4271 30.5157 12.3429 28.8575 11.3268C27.8675 10.7204 26.5904 10.5426 25.3701 10.5401C25.5963 10.4325 25.8485 10.2863 26.1233 10.1263L26.1317 10.1215C26.8502 9.70535 27.742 9.18891 28.6282 9.098C28.9181 9.06943 29.2029 9.03586 29.4836 9.00481C31.2702 8.80249 32.8136 8.62868 34.4417 9.18613C35.1796 9.43929 36.6934 10.2838 37.0843 11.068C37.3592 11.6214 37.8236 12.0531 38.7499 12.9141C39.2322 13.3628 39.5499 13.6236 39.7824 13.8145L39.7932 13.8232C40.1197 14.0918 40.1841 14.1479 40.281 14.3465C40.5814 14.9582 40.4721 15.6079 40.3202 16.5079Z" fill="white"/>
<path d="M32.0281 24.3204C32.1587 24.3649 32.2076 24.5236 32.1326 24.6393C31.8968 25.0028 31.6277 25.4922 31.3075 26.0859C31.1516 26.3764 31.0038 26.6505 30.8799 26.8645C30.4407 27.6186 30.405 28.2535 30.377 28.763C30.3469 29.2959 30.3199 29.5406 30.0015 29.753C29.7386 29.9293 29.4695 29.988 27.603 30.2722C27.2774 30.3227 27.1328 30.3857 27.0057 30.4413C26.9853 30.4501 26.9651 30.4588 26.9438 30.4676C26.8145 30.5207 26.6859 30.4093 26.693 30.2697C26.7063 30.0094 26.7147 29.6889 26.7158 29.2922V29.2113C26.7256 28.8455 26.7102 28.5487 26.697 28.3094C26.6725 27.8329 26.6694 27.6321 26.7965 27.4247C26.9524 27.1741 27.0741 27.0975 27.2739 26.9708C27.5531 26.7955 27.9358 26.5539 28.5024 25.7753C28.8035 25.3631 28.8703 25.1394 28.9121 24.9462C28.9299 24.8662 28.9365 24.8361 29.1684 24.6604C29.4133 24.4744 30.16 23.9088 31.1158 24.0694C31.3687 24.1123 31.688 24.2044 32.0281 24.3204Z" fill="white"/>
<path d="M24.648 32.9409C24.6072 32.9938 24.5599 33.0182 24.4912 33.0218C24.296 33.0297 24.1589 32.9817 24.0683 32.8723C23.8757 32.638 23.9017 32.1672 23.9466 31.892L24.7358 31.6816C24.7976 32.0994 24.8268 32.708 24.648 32.9409Z" fill="white"/>
<path d="M24.7119 30.0929C24.6987 30.208 24.6842 30.3375 24.6849 30.473C24.6858 30.5236 24.6865 30.5744 24.688 30.6239C24.6896 30.7529 24.6946 30.9577 24.6767 31.0509C24.4302 31.1406 24.2196 31.1406 23.943 31.1359C23.9389 31.0559 23.9439 30.9367 23.9471 30.8561C23.9486 30.7939 23.9521 30.7322 23.9527 30.6732C23.9537 30.6079 23.9527 30.5433 23.9527 30.479C23.9518 30.3272 23.9496 30.0784 23.9869 30.005C24.0612 29.9943 24.1372 29.978 24.2187 29.9592C24.3818 29.9241 24.5948 29.8792 24.7304 29.8996C24.7282 29.9523 24.72 30.0307 24.7119 30.0929Z" fill="white"/>
<path d="M23.2518 32.6973C23.2135 33.1019 23.0887 33.6021 22.7091 33.6782C22.5384 33.7131 22.4559 33.6619 22.4039 33.6129C22.1476 33.3755 22.1068 32.6581 22.1425 32.1447C22.3132 32.1479 22.5369 32.1096 22.802 32.0582C22.9635 32.0262 23.1244 31.9904 23.2524 31.9609C23.2672 32.151 23.2778 32.4221 23.2518 32.6973Z" fill="white"/>
<path d="M23.0724 31.246L22.2163 31.5462C22.2596 31.214 22.3176 30.7463 22.338 30.4354C22.3527 30.2168 22.4124 30.1496 22.4293 30.1352C22.4349 30.1302 22.4466 30.1198 22.4782 30.1198C22.4833 30.1198 22.488 30.1208 22.4936 30.1208L22.5115 30.1233L23.0526 30.0938C23.0755 30.3482 23.0755 30.9066 23.0724 31.246Z" fill="white"/>
<path d="M21.6888 30.9796C21.6405 31.1085 21.5834 31.4734 21.5477 31.7303L20.4751 31.6977C20.5357 31.3655 20.6194 31.0276 20.7117 30.7581C20.8048 30.4905 20.9052 30.2898 20.9974 30.2333C21.105 30.1687 21.3419 30.1543 21.4871 30.2782C21.723 30.4792 21.7883 30.7095 21.6888 30.9796Z" fill="white"/>
<path d="M21.2886 34.262C21.2055 34.3756 21.1133 34.4334 20.9988 34.4455C20.8821 34.4586 20.7914 34.4325 20.7189 34.3645C20.382 34.0537 20.4096 33.0352 20.4219 32.5454C20.8667 32.4441 21.3467 32.3578 21.5744 32.3447C21.6086 32.7547 21.6183 33.813 21.2886 34.262Z" fill="white"/>
<path d="M19.8889 31.6689C19.8366 31.8085 19.786 31.9405 19.7478 32.0572C19.6229 32.0965 19.2418 32.0622 18.8525 31.9763L19.12 30.2886C19.5598 30.1719 20.0699 30.1343 20.1932 30.2651C20.3557 30.4376 20.0295 31.3009 19.8889 31.6689Z" fill="white"/>
<path d="M19.4031 34.5196C19.1951 34.7759 18.8833 34.8957 18.4482 34.8912C18.147 34.8859 18.0394 34.7716 17.9855 34.6861C17.7439 34.3034 17.9804 33.4015 18.2173 32.8252L19.67 32.9124C19.6848 33.0139 19.697 33.1367 19.7027 33.2709C19.7187 33.6807 19.6672 34.1914 19.4031 34.5196Z" fill="white"/>
<path d="M31.4085 22.2703C30.1007 21.8999 30.2133 19.9875 30.3221 18.1392C30.3607 17.4852 30.3971 16.8668 30.3673 16.3612C30.2669 14.6311 29.9761 12.747 28.5845 11.8941C27.088 10.9788 24.6395 11.1875 23.1289 11.3797C23.1275 11.3799 23.1262 11.3807 23.1248 11.3809C23.1242 11.3809 23.1237 11.381 23.1231 11.3812C22.5698 11.5488 22.0522 11.6576 21.6508 11.6362C20.7596 11.5901 20.066 11.2149 19.4553 10.8856C18.9788 10.6274 18.5631 10.4043 18.1716 10.4043C18.1509 10.4043 18.1293 10.4043 18.1079 10.4053C16.9369 10.4812 16.3986 10.7673 15.9095 11.2037C15.7865 11.3125 15.6366 11.6278 15.1457 13.0425C14.8978 13.7575 14.852 14.1486 14.8059 14.5288C14.7645 14.8761 14.7225 15.2334 14.5377 15.7664C14.4091 16.134 14.3144 16.4512 14.2225 16.7571C13.9803 17.5695 13.7889 18.2095 13.2139 18.9705C13.1464 19.0606 13.0627 19.1929 12.9661 19.3438C12.8356 19.5493 12.6743 19.8046 12.4613 20.1001C12.3111 20.3084 11.966 21.088 11.9848 21.3255C12.013 21.7035 12.136 21.9381 12.2766 22.212C12.4165 22.4821 12.5758 22.7879 12.605 23.2102L12.6097 23.2786C12.6611 23.9483 12.5655 24.2843 11.2915 25.4224C10.477 26.1512 9.8984 26.8535 9.50813 27.3686C9.47368 27.4141 9.51848 27.4816 9.57533 27.4771C9.58849 27.4752 9.60168 27.4743 9.61393 27.4743C9.63838 27.4724 9.66284 27.4715 9.68701 27.4715C9.71146 27.4715 9.73595 27.4724 9.76008 27.4733C9.78457 27.4743 9.80808 27.4762 9.83225 27.4799C10.1403 27.515 10.4406 27.6453 10.6574 27.8699C10.6951 27.9089 10.7537 27.9195 10.8041 27.8994C11.0114 27.8131 11.2395 27.8272 11.4572 27.8476C11.7162 27.8716 11.9778 27.9472 12.1563 28.108C12.2242 28.1691 12.3175 28.2016 12.4071 28.1832C12.6098 28.1416 12.8211 28.1485 13.0175 28.22C13.1632 28.2742 13.2881 28.3567 13.3904 28.46C13.4869 28.5574 13.6501 28.5768 13.7693 28.5089C13.8169 28.4818 13.8682 28.4584 13.9238 28.4395C14.2005 28.3457 14.5063 28.3991 14.7749 28.4957C14.9073 28.5434 15.0459 28.5857 15.1651 28.6654C15.362 28.7964 15.49 28.9821 15.5759 29.1913C15.6419 29.3519 15.8615 29.4068 16.0025 29.3054C16.1718 29.1835 16.3116 29.1678 16.4525 29.2304C16.5108 29.2567 16.5563 29.2901 16.5912 29.3303C16.6922 29.4467 16.8544 29.5628 17.0044 29.5273C17.4221 29.4285 17.9279 29.494 18.299 29.6928C18.436 29.7649 18.5708 29.8746 18.6692 30.0407C18.6694 30.0408 18.6694 30.0409 18.6695 30.0411C18.6696 30.0418 18.6705 30.0414 18.6706 30.0408L18.6818 29.967C18.6869 29.9336 18.7106 29.906 18.7429 29.896L18.8329 29.8681C19.045 29.8007 20.1256 29.4892 20.546 29.9318C20.5642 29.95 20.5959 29.9518 20.6133 29.9328C20.6706 29.8702 20.717 29.8357 20.7468 29.8185C21.0206 29.6526 21.4899 29.6423 21.8024 29.9096C21.8652 29.9623 21.9671 29.9432 22.0145 29.8761C22.0437 29.8348 22.0768 29.7984 22.1138 29.7671C22.2237 29.6724 22.3626 29.6272 22.5163 29.6366L23.1102 29.6046C23.2595 29.5964 23.7234 29.5649 23.8697 29.5339C23.8808 29.5316 23.8922 29.5295 23.9038 29.5278C23.9656 29.5184 24.039 29.5024 24.1159 29.4864C24.4039 29.4236 24.7304 29.353 24.9986 29.4769C25.2565 29.5961 25.2239 29.8898 25.1928 30.1486C25.1806 30.2537 25.1674 30.3635 25.1683 30.4676C25.1702 30.5162 25.1712 30.5652 25.1721 30.6151C25.1759 30.8382 25.1806 31.0444 25.1365 31.2027C25.1364 31.2031 25.1363 31.2034 25.1363 31.2038C25.1363 31.2041 25.1364 31.2043 25.1364 31.2046L25.1636 31.3272C25.192 31.4477 25.3208 31.5157 25.4261 31.4505C25.6267 31.3266 25.8332 31.1703 25.8991 31.0777C25.9052 31.0691 25.9099 31.0598 25.9135 31.05C25.9227 31.025 25.9388 30.9735 25.9567 30.8695C25.9934 30.6489 26.0345 30.2007 26.0383 29.2903C26.0383 29.2423 26.0383 29.2078 26.0392 29.1918C26.0467 28.8539 26.0335 28.5829 26.0204 28.3435C25.9959 27.8501 25.9761 27.4617 26.2211 27.0665C26.4595 26.6819 26.6911 26.5363 26.9135 26.3955C27.1723 26.2333 27.4643 26.0491 27.9559 25.3747C28.1971 25.0425 28.2269 24.9085 28.2504 24.8016C28.3038 24.5509 28.3866 24.4 28.759 24.1186C29.062 23.8896 29.9843 23.1907 31.2284 23.4C31.6364 23.4693 32.2978 23.6869 32.9506 23.944C32.9509 23.9442 32.9512 23.9442 32.9515 23.9442C32.9519 23.9442 32.9519 23.9443 32.9522 23.9443C32.9757 23.9512 32.9999 23.9593 33.0221 23.9706C33.0322 23.9759 33.0426 23.9812 33.0534 23.9855C33.6177 24.2108 34.1669 24.4615 34.5303 24.6656C34.6338 24.7238 34.7654 24.6891 34.8408 24.5975C34.9532 24.4613 35.075 24.3783 35.2056 24.3C35.2578 24.268 35.2983 24.2438 35.3368 24.2109C35.4593 24.1069 35.458 23.8888 35.3153 23.8154C33.5781 22.9231 31.9499 22.4243 31.4085 22.2703ZM18.9458 22.6728C18.5414 24.4433 15.7988 26.3892 14.5522 26.3892H14.5277C14.5079 26.3882 14.4863 26.3864 14.463 26.3826C14.4395 26.3788 14.4141 26.3732 14.3871 26.3657C14.374 26.3619 14.3598 26.3572 14.3457 26.3534C14.1195 26.2822 13.8062 26.1084 13.569 25.875C13.4059 25.7147 13.2773 25.5259 13.2368 25.3223C13.2293 25.2866 13.2217 25.2511 13.2142 25.2153C13.1468 24.9142 13.063 24.5381 13.3287 23.9226C13.3654 23.8401 13.398 23.7629 13.4282 23.6926C13.4376 23.6691 13.4479 23.6456 13.4573 23.6233C13.4856 23.5568 13.5106 23.4956 13.5332 23.4404C13.5709 23.3466 13.6016 23.2669 13.627 23.1992C13.6374 23.1728 13.6468 23.1474 13.6553 23.1242C13.7312 22.9112 13.7406 22.8315 13.7509 22.749C13.7603 22.6844 13.7698 22.6054 13.7961 22.4927C13.8739 22.1605 13.9144 21.8792 13.9502 21.6285C14.0138 21.178 14.0693 20.7887 14.3122 20.4314C14.3536 20.3706 14.3994 20.315 14.4511 20.2664C14.469 20.2495 14.486 20.2335 14.5044 20.2175C14.5233 20.2015 14.5421 20.1874 14.5606 20.1733C14.6196 20.1319 14.6826 20.0954 14.751 20.0644C14.7746 20.054 14.7981 20.0437 14.8213 20.0352C14.8693 20.0173 14.9198 20.0023 14.9725 19.9891C15.1958 19.9348 15.4594 19.9264 15.7624 19.9646C16.0937 19.991 16.4004 20.0537 16.6724 20.1296C16.8995 20.1924 17.1022 20.2658 17.2738 20.3342C17.2917 20.3408 17.3086 20.3474 17.3255 20.3549C17.3585 20.3681 17.3902 20.3812 17.4212 20.3954C17.4683 20.4151 17.5113 20.4339 17.5517 20.4515C17.605 20.476 17.654 20.4976 17.6973 20.5171L17.7378 20.5359C17.9291 20.6231 18.0935 20.7188 18.234 20.8192C18.3034 20.87 18.3683 20.9214 18.4263 20.9738C18.4461 20.9908 18.4649 21.0086 18.4825 21.0275C18.5013 21.0453 18.5192 21.0632 18.5358 21.0811C19.0628 21.636 19.0368 22.2778 18.9458 22.6728ZM20.2169 15.9624L20.1636 16.2834C20.0406 17.0068 19.7583 17.9984 18.7168 18.2537C17.7149 18.4987 17.4774 18.5511 16.7643 18.5831C16.7483 18.585 16.7314 18.585 16.7145 18.585C16.1937 18.585 15.1918 18.2566 15.0142 17.4403C14.9007 16.9148 15.1325 16.534 15.5142 15.9025C15.5779 15.7984 15.6466 15.6867 15.7197 15.5619C16.2245 14.7117 16.4234 14.0963 16.583 13.6028C16.7386 13.1207 16.8682 12.722 17.2013 12.3916C17.2782 12.3148 17.3654 12.2423 17.4667 12.173C17.5314 12.1288 17.5991 12.0895 17.6703 12.0528C17.765 12.0058 17.8645 11.9647 17.9686 11.9318C18.2004 11.8577 18.4508 11.82 18.7014 11.82C19.1874 11.82 19.6726 11.96 20.0187 12.2376C20.1743 12.3624 20.3957 12.6119 20.5244 13.3475C20.5906 13.7264 20.4779 14.4228 20.2169 15.9624ZM27.6469 18.021C27.2883 18.6364 27.0923 18.9752 26.7826 19.2293C26.1681 19.7341 25.4513 19.8617 24.8612 19.8617C24.4371 19.8617 24.077 19.7962 23.8649 19.7576C23.2551 19.6459 22.1198 19.4395 21.7418 18.5436C21.6678 18.3663 21.6668 18.2537 21.6668 18.111C21.6668 17.9701 21.6668 17.733 21.6013 17.1689L21.5975 17.1313C21.5674 16.876 21.5338 16.587 21.6069 16.2166L21.6154 16.1723C21.8293 15.0841 21.8874 14.9178 21.9354 14.824C22.0461 14.6101 22.3087 14.5257 22.5226 14.6355C22.73 14.7434 22.8162 14.9947 22.7187 15.2058C22.697 15.2676 22.6362 15.4994 22.4708 16.3411L22.4624 16.3853C22.4153 16.6228 22.436 16.8029 22.4633 17.0309L22.4671 17.0695C22.5383 17.6822 22.5383 17.9598 22.5383 18.11C22.5383 18.1365 22.5383 18.1656 22.5392 18.183C22.5395 18.1896 22.5428 18.1985 22.5449 18.2048C22.6084 18.3553 22.743 18.4733 22.9103 18.5667C23.0541 18.647 23.209 18.5061 23.1781 18.3442C22.9979 17.4006 23.0164 16.3176 23.3743 15.6425C23.4943 15.4129 23.7163 15.0375 23.9271 14.6869C23.9277 14.6859 23.9284 14.685 23.9289 14.684C23.9294 14.683 23.9302 14.6821 23.9307 14.6811C23.9521 14.6458 23.9734 14.6109 23.9945 14.5756C24.0124 14.5455 24.0303 14.5166 24.0469 14.4884C24.1397 14.3344 24.227 14.1929 24.2966 14.0803C24.306 14.0643 24.3154 14.0483 24.3248 14.0332C24.3314 14.0219 24.338 14.0116 24.3446 14.0022C24.3596 13.9777 24.3728 13.9551 24.385 13.9356C24.3907 13.9262 24.3963 13.9178 24.401 13.9093C24.4039 13.9055 24.4057 13.9018 24.4076 13.8989C24.4142 13.8876 24.4208 13.8773 24.4265 13.8688C24.4377 13.8509 24.4462 13.8378 24.4509 13.8293C24.4513 13.8286 24.4516 13.828 24.4519 13.8273C24.453 13.8254 24.455 13.8227 24.4561 13.8208C24.4568 13.8195 24.457 13.8193 24.4578 13.8181C24.5097 13.7425 24.5612 13.6696 24.6118 13.5997C24.7259 13.4422 24.5925 13.2408 24.4152 13.3208C24.1108 13.4581 23.9058 13.6145 23.8609 13.6502C23.6723 13.8005 23.3982 13.7694 23.2491 13.5809C23.0998 13.3923 23.1309 13.1175 23.3194 12.9672C23.5437 12.791 24.7323 11.9239 26.1559 12.3311C27.1814 12.6228 27.719 13.4064 27.9217 13.701C28.0848 13.9403 28.5852 14.6666 28.5692 15.6808C28.5572 16.454 28.2344 17.0105 27.6469 18.021Z" fill="white"/>
<path d="M18.4021 12.7168C18.3293 12.8931 18.2421 13.1118 18.1483 13.3492C17.9296 13.8992 17.6815 14.5221 17.5623 14.748C17.3565 15.1383 17.1966 15.3845 17.0686 15.5831C16.9224 15.8108 16.8057 15.9912 16.7175 16.2425C16.5632 16.6823 16.5356 17.1739 16.636 17.7084C16.3633 17.6783 15.917 17.4904 15.8665 17.2538C15.8288 17.0775 15.9383 16.885 16.2608 16.3545C16.3254 16.2484 16.3947 16.1333 16.4706 16.0053C17.025 15.0718 17.2493 14.3772 17.4143 13.8693C17.5921 13.3169 17.6762 13.0851 17.9595 12.8915C18.0862 12.8034 18.2405 12.7473 18.4021 12.7168Z" fill="white"/>
<path d="M17.8613 32.2963C17.5592 32.9135 17.183 33.4829 16.9487 33.7654C16.7545 33.2406 16.4173 32.0385 16.5064 31.0713C16.5089 31.0434 16.512 31.0158 16.5161 30.9888C16.5519 30.6901 16.6312 30.416 16.7724 30.1964C16.8656 30.0521 17.1234 29.9639 17.4164 29.9639C17.6326 29.9639 17.8678 30.0113 18.0702 30.1199H18.0717C18.1803 30.1779 18.328 30.2952 18.3434 30.6365C18.3657 31.0973 18.1461 31.7169 17.8613 32.2963Z" fill="white"/>
<path d="M34.4145 25.3798C34.438 25.3986 34.4527 25.4271 34.4393 25.4541C34.3492 25.6354 34.2408 25.7625 34.1131 25.9124C33.959 26.096 33.7826 26.3042 33.6184 26.6289C33.3849 27.0891 33.3101 27.5089 33.271 28.5836C33.2246 29.8462 33.2732 30.5555 33.3101 31.0728C33.3451 31.5722 33.3666 31.8734 33.2775 32.3605C33.0979 33.343 32.6777 33.9937 32.1453 34.8173C31.4794 35.8471 30.7904 36.9113 29.6495 37.2509C29.5435 37.2835 29.5401 37.2835 29.2424 37.2845C28.9835 37.2845 28.5528 37.2852 27.7375 37.3155C26.2472 37.3694 25.4996 37.3962 24.86 37.5193C24.189 37.6493 23.8389 37.792 23.4995 37.9291C23.1933 38.0529 22.9037 38.1707 22.3488 38.2847C22.0182 38.3516 21.5238 38.4244 19.8392 38.4267C18.0885 38.43 17.0316 38.431 15.636 38.272C13.7211 38.0532 12.7599 37.9438 12.1216 37.6029C10.6158 36.7996 9.97992 35.3551 8.92806 32.9622C8.92627 32.958 8.92444 32.9538 8.92264 32.9495C8.90965 32.9198 8.94592 32.8911 8.97387 32.9077C9.02377 32.9387 9.07582 32.9642 9.13074 32.9825C9.17652 32.9988 9.22452 33.0112 9.27285 33.0194C9.36914 33.0357 9.46952 33.0367 9.57146 33.0194C9.58935 33.0161 9.60568 33.0122 9.62135 33.0053C9.62436 33.0044 9.62733 33.0027 9.6303 33.0014C9.64809 32.9926 9.6703 33.0001 9.67781 33.0184C9.74465 33.2029 9.85097 33.3668 10.0295 33.4615C10.2083 33.5549 10.4116 33.5621 10.6105 33.5604C10.8153 33.5572 11.0218 33.5458 11.226 33.5213C11.3342 33.5098 11.4448 33.5627 11.4863 33.6633C11.6731 34.1165 11.9049 34.4447 12.2527 34.493C12.2715 34.4956 12.296 34.4986 12.3271 34.4986C12.3949 34.4986 12.4945 34.4816 12.6305 34.4013C12.7983 34.3023 13.0511 34.3647 13.1786 34.512C13.2536 34.5988 13.3359 34.6657 13.4084 34.7239C13.7666 35.0919 14.6375 35.2682 15.3687 35.2682C15.7677 35.2682 16.1253 35.216 16.3358 35.1131C16.637 34.9671 16.637 34.7428 16.6222 34.652C16.5966 34.4894 16.5735 34.3281 16.5537 34.1681C16.5513 34.1492 16.5803 34.1417 16.588 34.1593C16.6319 34.2546 16.6853 34.3738 16.828 34.3967C16.8434 34.3983 16.8606 34.4019 16.8804 34.4019C17.0843 34.4019 17.4013 34.4682 17.456 34.6644C17.4838 34.7644 17.5233 34.8581 17.5768 34.943C17.6991 35.1366 17.9482 35.3675 18.442 35.3756H18.4803C19.0474 35.3756 19.485 35.1902 19.7802 34.8238C19.7994 34.8 19.8177 34.7758 19.8352 34.751C19.9413 34.6018 20.2563 34.5952 20.3913 34.7193C20.5432 34.8597 20.7342 34.9322 20.9472 34.9322C20.9814 34.9322 21.0159 34.9306 21.0517 34.9266C21.3054 34.8995 21.525 34.765 21.6891 34.5358C21.7964 34.3859 21.8747 34.2018 21.932 34.0026C21.9488 33.9438 22.0294 33.9265 22.0743 33.9676C22.1829 34.0679 22.3566 34.174 22.6073 34.174C22.6684 34.174 22.7347 34.1675 22.8049 34.1528C23.2974 34.0538 23.5427 33.646 23.6588 33.1859C23.6627 33.1706 23.685 33.1663 23.6952 33.1784C23.8201 33.3302 24.0503 33.5056 24.4509 33.5056C24.4713 33.5056 24.4926 33.5056 24.5136 33.5046C24.7257 33.4948 24.9045 33.4018 25.0334 33.2352C25.185 33.0377 25.2478 32.7484 25.2649 32.4542C25.2712 32.3459 25.3407 32.2507 25.4402 32.2074C25.8568 32.0258 26.3484 31.657 26.495 31.4037C26.496 31.402 26.497 31.4002 26.498 31.3984C26.5431 31.3191 26.6138 31.2544 26.7034 31.2369C27.0128 31.1764 27.1513 31.1166 27.2777 31.0615C27.3837 31.0151 27.4687 30.9784 27.7068 30.9414C29.6003 30.6525 29.9698 30.5888 30.3795 30.3155C30.9925 29.9068 31.0235 29.3443 31.0537 28.8001C31.0797 28.3398 31.1092 27.8176 31.4665 27.2046C31.5963 26.9809 31.7463 26.7017 31.9056 26.4065C32.1781 25.901 32.5565 25.198 32.8337 24.812C32.8968 24.7243 33.0123 24.6969 33.1116 24.7393C33.7532 25.0129 34.2959 25.2844 34.4145 25.3798Z" fill="white"/>
<path d="M16.0257 31.0119C15.9508 31.6666 15.9049 32.5412 16.011 33.6807C16.0411 34.002 16.0828 34.336 16.1349 34.6737C16.0452 34.7226 15.7773 34.7915 15.3008 34.7837C14.616 34.77 13.9494 34.5979 13.7492 34.3814L13.7181 34.3533C13.5516 34.2195 13.4424 34.1313 13.4267 33.8923C13.4217 33.8116 13.4562 33.7316 13.5302 33.6186C13.571 33.555 13.625 33.4818 13.6918 33.391C13.8069 33.2366 13.9496 33.0439 14.0958 32.7961C14.5243 32.0719 14.6869 31.8483 14.8933 31.5659C14.9096 31.543 14.9268 31.5201 14.9447 31.4966C15.0664 31.33 15.2091 31.1308 15.4237 30.8036C15.5837 30.5605 15.7167 30.3701 15.8262 30.2208C16.0091 29.972 16.1289 29.8371 16.2058 29.7637C16.1945 29.8763 16.1691 30.0348 16.1446 30.181C16.1082 30.4055 16.0624 30.6807 16.0257 31.0119Z" fill="white"/>
<path d="M15.7122 20.8353C15.7082 20.8409 15.7031 20.8466 15.699 20.8525C15.61 20.9758 15.508 21.1154 15.3866 21.3871C15.06 22.1127 15.0538 22.5233 15.0488 22.8536C15.0456 23.0268 15.0437 23.1645 14.9964 23.3254C14.9637 23.4315 14.9107 23.5532 14.8495 23.6934C14.6569 24.1341 14.4057 24.712 14.5183 25.4896C14.3624 25.4147 14.124 25.2431 14.0907 25.1518C14.0826 25.1095 14.0734 25.0677 14.0637 25.026C14.0098 24.7835 13.974 24.6254 14.1284 24.2703C14.534 23.3349 14.5838 23.113 14.6155 22.8583C14.6221 22.8028 14.6287 22.7595 14.645 22.6892C14.7307 22.3203 14.7755 22.0044 14.8122 21.7507C14.8668 21.3655 14.9035 21.1107 15.0334 20.9191C15.0807 20.8482 15.2147 20.8115 15.4064 20.8115C15.4823 20.8115 15.5679 20.8171 15.6611 20.8303L15.683 20.8318C15.6924 20.8328 15.7025 20.8337 15.7122 20.8353Z" fill="white"/>
<path d="M15.1773 30.0619C15.1553 29.8376 15.1161 29.613 15.0346 29.4016C15.0289 29.3909 15.0045 29.3369 14.9994 29.3266C14.9847 29.2996 14.9678 29.2742 14.9521 29.2475C14.9511 29.2466 14.9505 29.2466 14.9505 29.246C14.9495 29.2444 14.9489 29.2444 14.9489 29.2435C14.9398 29.2337 14.9317 29.224 14.9229 29.2149C14.9097 29.2017 14.8953 29.1889 14.8812 29.1773C14.8786 29.1741 14.8761 29.1716 14.8739 29.1707C14.8673 29.165 14.8577 29.1575 14.847 29.1512C14.8297 29.1421 14.8134 29.1324 14.7965 29.1236C14.7914 29.1205 14.7792 29.1155 14.7679 29.1114C14.7679 29.1114 14.767 29.1114 14.767 29.1105C14.7645 29.1095 14.7619 29.1089 14.7598 29.1079C14.7572 29.1064 14.7557 29.1054 14.7541 29.1048C14.7516 29.1039 14.75 29.1032 14.7485 29.1032C14.7469 29.1032 14.7469 29.1023 14.7469 29.1023C14.7419 29.0998 14.7388 29.0992 14.7362 29.0982C14.6057 29.0502 14.4734 28.9978 14.3347 28.9774C14.3338 28.9774 14.3316 28.9765 14.3297 28.9765H14.3265C14.3112 28.9765 14.2792 28.9733 14.2776 28.9733C14.2582 28.9724 14.2393 28.9724 14.2205 28.9733C14.2114 28.9733 14.2026 28.9733 14.1945 28.9743H14.1872C14.1841 28.9743 14.18 28.9752 14.176 28.9752C14.1744 28.9768 14.1719 28.9768 14.171 28.9768C14.17 28.9768 14.1694 28.9768 14.1694 28.9768C14.1383 28.9859 14.1057 28.9941 14.0746 29.0038C14.0615 29.0104 14.047 29.017 14.0339 29.0251C14.0226 29.0317 14.011 29.0399 13.9997 29.0455C13.9987 29.0465 13.9972 29.048 13.9956 29.048L13.9931 29.0505C13.9783 29.0653 13.963 29.0791 13.9482 29.0938C13.9432 29.0988 13.9294 29.1158 13.9197 29.128C13.9172 29.1296 13.9156 29.1312 13.9156 29.1327C13.9147 29.1337 13.9147 29.1337 13.914 29.1343C13.9131 29.1352 13.9131 29.1359 13.9115 29.1368C13.9106 29.1378 13.9106 29.1384 13.91 29.1384C13.9059 29.1456 13.9018 29.1515 13.9002 29.1547C13.8479 29.2362 13.7948 29.3172 13.7402 29.3978C13.6144 29.5904 13.4855 29.7821 13.355 29.9725C13.2358 30.1447 13.1166 30.3169 12.9984 30.4892C12.9322 30.5855 12.8669 30.6808 12.8016 30.7771C12.7904 30.7934 12.7797 30.8098 12.769 30.8261C12.8465 30.8408 12.924 30.8562 13.0024 30.8709C13.1778 30.9029 13.3525 30.9337 13.5304 30.9581C13.8968 31.008 14.2691 31.0309 14.6402 31.0178C14.6581 31.0168 14.676 31.0178 14.6926 31.0209C14.7817 30.8935 14.8868 30.7417 15.0208 30.5384C15.0951 30.4248 15.166 30.3198 15.2328 30.2225C15.2027 30.1761 15.1839 30.1205 15.1773 30.0619Z" fill="white"/>
<path d="M13.8728 31.5763C13.8411 31.8586 13.5252 32.5898 13.0321 33.2861C12.6192 33.868 12.3686 34.009 12.3187 34.0139C12.1195 33.9865 11.9228 33.4935 11.7669 33.0046C11.7042 32.8064 11.6477 32.6087 11.6003 32.443C11.4934 32.071 11.4739 31.5722 11.4927 31.2588C11.909 31.4897 12.6402 31.5518 13.667 31.5559H13.6701C13.7379 31.5631 13.805 31.5706 13.8728 31.5763Z" fill="white"/>
<path d="M13.1423 29.2511V29.2527C13.1373 29.2593 13.1332 29.2665 13.1285 29.273C12.9522 29.5325 12.7743 29.7906 12.5965 30.0491C12.5042 30.1822 12.413 30.3152 12.3223 30.4491C12.2724 30.5219 12.2056 30.6019 12.1476 30.6881C12.0014 30.654 11.8555 30.6204 11.7109 30.5796C11.5926 30.5454 11.4759 30.5087 11.3614 30.4629C11.3385 30.4547 11.3166 30.4457 11.2953 30.4353C11.2764 30.397 11.2494 30.3625 11.2168 30.3365C11.2178 30.3355 11.2178 30.3333 11.2184 30.3324C11.2601 30.2474 11.3025 30.1617 11.3442 30.077C11.4232 29.9212 11.5026 29.7662 11.5907 29.6159C11.7476 29.3449 11.9368 29.0691 12.2022 28.8935C12.2153 28.8837 12.2298 28.8746 12.2439 28.8658C12.3467 28.8012 12.4497 28.7557 12.5761 28.7401C12.5908 28.7385 12.6796 28.7391 12.7213 28.7426C12.7285 28.7426 12.7345 28.7435 12.7386 28.7435H12.7395C12.7427 28.7445 12.7486 28.746 12.7574 28.7492C12.7884 28.7589 12.8195 28.7655 12.8506 28.7761C12.8612 28.7812 12.871 28.7859 12.8816 28.7915C12.9086 28.8078 12.9362 28.8226 12.9616 28.843C12.9208 28.8119 13.0181 28.9123 13.0181 28.9051C13.0965 29.0136 13.1203 29.1043 13.1423 29.2511Z" fill="white"/>
<path d="M11.7453 28.5134C11.4187 28.7819 11.1813 29.1395 10.983 29.5116C10.872 29.718 10.7716 29.9285 10.6671 30.1384C10.6565 30.1597 10.6458 30.1801 10.6336 30.2011C10.5348 30.1798 10.4359 30.1512 10.3396 30.1205C10.2367 30.0879 10.1348 30.0502 10.0369 30.0048C9.99203 29.9834 9.9472 29.9615 9.90234 29.9379C10.0002 29.7525 10.1169 29.5746 10.228 29.4018C10.3848 29.1578 10.5545 28.9178 10.739 28.6925C10.8083 28.6069 10.8817 28.5131 10.9789 28.4566C11.0784 28.398 11.1985 28.4118 11.3127 28.4184C11.4335 28.4259 11.5634 28.429 11.6776 28.4748C11.7011 28.4849 11.7265 28.5006 11.7453 28.5134Z" fill="white"/>
<path d="M11.2269 32.8954C11.2106 32.9091 11.1968 32.9241 11.1846 32.9411C11.1733 32.9444 11.1616 32.947 11.1544 32.9486C11.076 32.9568 10.996 32.9627 10.917 32.9676C10.7651 32.9774 10.6108 32.9839 10.4574 32.9783C10.3718 32.9751 10.2943 32.962 10.2591 32.9075C10.2027 32.8216 10.1857 32.6724 10.1653 32.5588C10.0649 32.0014 10.0518 31.4204 10.123 30.8564C10.4144 30.9608 10.714 31.0418 11.0214 31.0923C10.9552 31.6008 11.0679 32.3474 11.134 32.5761C11.1648 32.6825 11.1958 32.7899 11.2269 32.8954Z" fill="white"/>
<path d="M10.2896 28.3293C10.0318 28.6459 9.79684 28.9831 9.58603 29.3322C9.50103 29.4743 9.40471 29.6212 9.33382 29.773C9.23187 29.7445 9.13963 29.7037 9.04177 29.6431C8.9668 29.5967 8.89401 29.5452 8.82312 29.4913C8.80523 29.4765 8.75628 29.4383 8.72588 29.4138C8.71867 29.4082 8.71207 29.4025 8.70453 29.3984C8.72807 29.3316 8.77137 29.2573 8.7952 29.2074C8.84915 29.0891 8.90939 28.9731 8.97244 28.8598C9.09228 28.6478 9.22622 28.4404 9.37806 28.2494C9.43452 28.1791 9.48817 28.0884 9.57568 28.0624C9.65568 28.0395 9.76108 28.0502 9.82538 28.0615C10.0164 28.0985 10.1657 28.185 10.2896 28.3293Z" fill="white"/>
<path d="M8.30095 29.7093C8.30517 29.6928 8.32632 29.6906 8.33625 29.7045C8.40371 29.7984 8.49635 29.8803 8.59558 29.9577C8.64006 29.9915 8.68427 30.0253 8.7292 30.0571C8.73619 30.0621 8.73948 30.0708 8.73749 30.079C8.63362 30.51 8.56188 30.9666 8.5595 31.4175C8.55937 31.4424 8.52179 31.4477 8.51597 31.4235C8.38735 30.8854 8.22024 30.0252 8.30095 29.7093Z" fill="white"/>
<path d="M9.56564 30.6654C9.51327 31.0507 9.48816 31.4368 9.50511 31.8252C9.51327 32.0382 9.53616 32.2496 9.5647 32.4601C9.5647 32.4617 9.5647 32.4632 9.56564 32.4642V32.4651C9.51983 32.4545 9.47186 32.4529 9.42292 32.4601C9.43265 32.457 9.40754 32.4585 9.39689 32.4585H9.39373C9.38654 32.4576 9.37586 32.457 9.3724 32.456C9.31846 32.4429 9.31376 32.4372 9.27108 32.4102C9.21557 32.3745 9.15689 32.3089 9.11768 32.2421C9.01417 32.0627 8.99128 31.8446 8.98311 31.6414C8.96773 31.2423 9.00192 30.8439 9.07627 30.4531C9.13995 30.4791 9.19549 30.503 9.2877 30.5428C9.379 30.5826 9.47373 30.6218 9.56597 30.6645V30.6654H9.56564Z" fill="white"/>
<g opacity="0.8">
<path opacity="0.8" d="M19.7509 50.822C17.9931 50.822 16.326 50.711 14.927 50.6019L14.5414 50.5719L14.1562 50.5183C13.9878 50.4948 13.7587 50.47 13.5377 50.4458C12.1919 50.2996 9.68911 50.0269 6.9261 48.7293L6.49698 48.5271L6.09681 48.3028C0.786441 45.3265 -1.20093 40.8468 -2.27105 38.4387C-2.33917 38.2855 -2.42178 38.0994 -2.49956 37.928C-3.03971 36.8223 -3.38139 35.8258 -3.67105 34.9134L-3.73541 34.7093L-3.78906 34.5115C-4.55987 31.7721 -4.75458 29.4066 -4.40163 27.0673C-4.04761 24.7184 -3.17757 22.5814 -1.66599 20.3446L-0.88231 19.0648C-0.723113 18.8063 -0.610712 18.5217 -0.550274 18.2242C0.0472772 15.2628 1.4033 13.1649 2.06951 12.1629C2.25289 10.9501 2.55528 9.75838 2.97228 8.60491L3.0345 8.43005L3.10101 8.25947C3.11174 8.22943 3.12569 8.18708 3.15143 8.10982C3.45074 7.20814 4.15236 5.09846 5.94932 2.88312L6.6241 2.06564L7.31177 1.4445C9.0781 -0.160511 11.1823 -1.34837 13.4691 -2.03139C14.7458 -2.41213 16.062 -2.64484 17.3918 -2.72495L17.5205 -2.73461L17.7142 -2.74372C17.9443 -2.75445 18.1733 -2.75982 18.397 -2.75982C19.2268 -2.76136 20.0552 -2.69155 20.8731 -2.55116C21.384 -2.46515 21.9089 -2.52521 22.3873 -2.72442C23.8052 -3.31588 25.2956 -3.71597 26.819 -3.91415C26.9462 -3.9324 27.0572 -3.94634 27.1447 -3.95761C27.385 -3.98765 27.7669 -4.03271 28.2282 -4.07669C29.0328 -4.1534 30.2665 -4.24512 31.6038 -4.24512C34.2156 -4.24512 36.4635 -3.90664 38.4762 -3.21093L38.6473 -3.15139L38.8145 -3.08863C43.2559 -1.41023 45.5168 0.934382 47.1426 3.00274L47.22 3.10144L47.4437 3.30045C48.9124 4.44951 50.1617 5.8546 51.1309 7.44791L51.4339 7.94675L51.6899 8.46976C53.8623 12.9042 53.172 16.9986 52.9118 18.5369L52.8977 18.619C52.7106 19.7539 52.4132 20.8678 52.0089 21.9447C51.8603 22.983 51.6158 24.0053 51.2785 24.9984C50.7018 26.7638 49.8509 28.4275 48.7573 29.9285C48.1275 30.8192 47.4166 31.6496 46.6332 32.4088C46.3563 32.6764 46.1768 33.029 46.1232 33.4104C46.0892 33.6452 46.0507 33.8774 46.0066 34.1076C45.3699 37.5234 43.876 39.9009 43.2661 40.8475L41.4225 43.4953C39.2024 46.2614 36.5683 48.0857 33.3804 49.0663L32.6079 49.3082L31.7738 49.4535C30.8195 49.622 29.8522 49.7056 28.8831 49.7036C28.7496 49.7036 28.6149 49.7036 28.4658 49.6997H28.4229L28.2582 49.7098L28.0817 49.7164H28.0769C27.7075 49.7288 27.3413 49.7892 26.9875 49.896C24.9282 50.5258 22.5992 50.822 19.7509 50.822Z" stroke="#89D0FF" stroke-width="0.332042" stroke-miterlimit="10"/>
<path opacity="0.6" d="M19.7511 49.0033C18.0668 49.0033 16.4512 48.8962 15.0935 48.7888L14.7717 48.764L14.4499 48.7195C14.2492 48.6918 14.0041 48.666 13.7676 48.6392C12.4604 48.4969 10.2751 48.2595 7.83549 47.1153L7.4772 46.9468L7.14407 46.7597C2.45808 44.1311 0.724429 40.2288 -0.311897 37.8967C-0.385922 37.7305 -0.476566 37.5261 -0.561317 37.3403C-1.04407 36.3502 -1.36055 35.4356 -1.62768 34.5938L-1.68132 34.4244L-1.72799 34.2591C-2.41351 31.8229 -2.59052 29.7438 -2.28477 27.7152C-1.97902 25.6865 -1.20875 23.8118 0.134929 21.8357L1.13908 20.1959C1.31665 19.9054 1.43852 19.5843 1.49846 19.2491C1.99839 16.4636 3.31419 14.4886 3.91227 13.5896L3.98789 13.4759L4.01581 13.4308C4.02812 13.4034 4.03994 13.3771 4.05121 13.3487C4.08768 13.2302 4.1236 13.1154 4.15847 13.0059C4.31576 11.8633 4.59354 10.7404 4.98721 9.65611L5.04086 9.51022L5.09826 9.36377C5.11648 9.31711 5.13366 9.26669 5.18407 9.11541C5.4689 8.25719 6.06162 6.47525 7.61238 4.56351L8.17506 3.8823L8.74632 3.36573C10.2778 1.97416 12.1023 0.944313 14.0851 0.352231C15.2108 0.0180511 16.3711 -0.185868 17.5433 -0.255516L17.6506 -0.264094L17.8115 -0.271604C18.0073 -0.280723 18.2025 -0.285014 18.3929 -0.285014C19.2338 -0.28651 20.0726 -0.528569 20.8964 -0.359439C21.532 -0.22796 22.1928 -0.298284 22.7866 -0.560589C23.8959 -1.04979 25.3892 -1.24517 27.0987 -1.45812C27.2205 -1.47582 27.3267 -1.48924 27.4093 -1.49943C27.6341 -1.52786 27.9935 -1.57024 28.4285 -1.61154C29.1848 -1.68395 30.3488 -1.77246 31.6002 -1.77246C33.9696 -1.77246 35.9879 -1.47261 37.7714 -0.855746L37.9141 -0.806401L38.0535 -0.752762C41.9902 0.73468 43.936 2.72581 45.4517 4.65631C45.536 4.76361 45.6222 4.87355 45.6545 4.91166L45.6904 4.94382L45.9778 5.19969L46.0166 5.2394C47.326 6.24256 48.4375 7.48074 49.294 8.89066L49.5461 9.30637L49.7606 9.74193C51.6294 13.5563 51.0436 17.0263 50.7938 18.5084L50.7804 18.5872C50.6031 19.6639 50.3128 20.7189 49.9144 21.7348C49.7891 22.7235 49.5641 23.697 49.2431 24.6405C48.7331 26.2026 47.9807 27.6748 47.0132 29.0031C46.3582 29.9341 45.601 30.7888 44.7556 31.551C44.3631 31.9032 44.1156 32.3885 44.0607 32.9129C44.0199 33.2991 43.9647 33.6746 43.8952 34.043C43.3335 37.0582 42.0209 39.1437 41.4201 40.0776L39.9268 42.2484C37.9422 44.7986 35.5905 46.4662 32.7415 47.3442L32.098 47.546L31.4007 47.6665C30.5684 47.8134 29.7247 47.8866 28.8796 47.8849C28.7568 47.8849 28.6312 47.8849 28.4961 47.8817H28.458H28.3781C28.3781 47.8817 28.3512 47.8817 28.2965 47.8856L28.149 47.8947L28.0004 47.9L27.7038 47.9114C27.3117 47.9251 26.9233 47.9927 26.5495 48.1119C24.6528 48.7176 22.461 49.0033 19.7511 49.0033Z" stroke="white" stroke-width="0.332042" stroke-miterlimit="10"/>
<path opacity="0.6" d="M19.7508 46.8571C18.1416 46.8571 16.5764 46.7526 15.2589 46.65L15.002 46.6301L14.7456 46.5949C14.5133 46.5625 14.2521 46.5341 13.9995 46.5064C12.7502 46.3705 10.8637 46.1651 8.74815 45.1728L8.46117 45.0383L8.19299 44.8884C4.12918 42.6105 2.63692 39.2499 1.64887 37.0259C1.56466 36.8355 1.46918 36.621 1.38067 36.4221C0.951553 35.5493 0.665113 34.7167 0.421048 33.946L0.378136 33.8109L0.340588 33.6783C-0.259644 31.5456 -0.418416 29.7524 -0.159871 28.0364C0.102429 26.2963 0.785802 24.6742 1.98949 22.931L2.13271 22.7239L2.28773 22.5249C2.38536 22.4004 2.47922 22.2776 2.57148 22.1574L3.17547 21.0498C3.37356 20.6878 3.5073 20.2941 3.57078 19.8863C3.95485 17.4012 5.1521 15.6058 5.70459 14.7777L5.7073 14.7733C5.73895 14.7262 5.7797 14.6661 5.80063 14.6328L5.91864 14.4445C5.96477 14.3437 6.0259 14.2096 6.07955 14.0691C6.1332 13.9011 6.19703 13.6936 6.26675 13.479C6.39769 12.4204 6.64853 11.38 7.0145 10.3781L7.05633 10.2611L7.10195 10.1431C7.14055 10.045 7.16899 9.95972 7.22476 9.79181C7.48921 8.9974 7.97947 7.52282 9.28347 5.91417L9.7346 5.36863L10.19 4.95723C11.4863 3.77918 13.0307 2.90736 14.7091 2.4061C15.6833 2.11697 16.6877 1.94166 17.7023 1.88364L17.7881 1.87721L17.9184 1.87131C18.0794 1.8638 18.2403 1.86005 18.4012 1.86005C19.2735 1.85884 20.1424 1.96935 20.9867 2.18886C21.7176 2.37376 22.4904 2.29218 23.1666 1.95874C24.2485 1.4336 25.6957 0.876282 27.3913 0.668158C27.5077 0.651531 27.6059 0.638659 27.6858 0.628465C27.8966 0.602183 28.2324 0.56249 28.64 0.521187C29.3497 0.453063 30.4407 0.37207 31.6079 0.37207C33.7349 0.37207 35.5236 0.633295 37.0792 1.17076L37.1935 1.21046L37.3052 1.2523C40.9208 2.61905 42.5398 4.40902 43.7731 5.97908C44.0451 6.32504 44.0862 6.37869 44.273 6.54444L44.5032 6.74933L44.5927 6.84106C45.1876 7.30182 46.4039 8.25072 47.4687 10.0058L47.6709 10.3384L47.8416 10.6865C49.4067 13.8808 48.9198 16.7655 48.686 18.1522L48.673 18.2289C48.5055 19.2455 48.2224 20.2397 47.8286 21.1919L47.8181 21.2794C47.714 22.1903 47.5128 23.0874 47.2176 23.9555C46.7749 25.3148 46.1205 26.5957 45.2787 27.751C44.5744 28.7606 43.7277 29.6631 42.7651 30.4304C42.5362 30.6119 42.3484 30.8404 42.2152 31.1005C42.0816 31.3606 42.0056 31.6462 41.9915 31.9382C41.9654 32.5114 41.8994 33.082 41.7943 33.646C41.3081 36.2605 40.1669 38.0731 39.5843 38.9779L38.4268 40.6886C36.6818 43.018 34.6136 44.526 32.1138 45.2923L31.5994 45.4533L31.0431 45.55C30.3318 45.6757 29.6107 45.738 28.8884 45.7367C28.7763 45.7367 28.662 45.7367 28.5387 45.7335H28.5102H28.3868C28.3659 45.7335 28.3021 45.7335 28.1723 45.7413L28.0543 45.7488L27.94 45.7531L27.3436 45.7753C26.9258 45.7896 26.5122 45.8641 26.1157 45.9967C24.3783 46.5818 22.3287 46.8571 19.7508 46.8571Z" stroke="white" stroke-width="0.311291" stroke-miterlimit="10"/>
<path opacity="0.6" d="M19.7505 44.7112C18.2126 44.7112 16.7005 44.6097 15.4249 44.5107L15.2324 44.4957L15.0398 44.4693C14.7764 44.4327 14.4991 44.4023 14.2304 44.3733C13.0562 44.245 11.4507 44.0709 9.6586 43.2301L9.44404 43.1289L9.24397 43.0169C5.80241 41.0858 4.53651 38.2368 3.61174 36.1552C3.51574 35.9406 3.41596 35.7147 3.31725 35.4985C2.92408 34.708 2.67358 33.9488 2.46546 33.2993L2.43327 33.1978L2.40538 33.0988C1.39909 29.5225 1.77725 27.0137 3.75444 24.1515L3.8617 23.9959L3.97811 23.8468C4.10951 23.6789 4.23235 23.5175 4.35359 23.364C4.53596 23.1248 4.72048 22.8813 4.92166 22.6308C5.04646 22.4747 5.14719 22.3008 5.2204 22.1148L5.4473 21.5355C5.54347 21.2891 5.60381 21.0303 5.62647 20.7668C5.82334 18.4726 6.93903 16.8001 7.49155 15.9714L7.49475 15.9671C7.53498 15.9059 7.59614 15.8147 7.61651 15.782L7.74579 15.5755L7.78549 15.5218C7.85416 15.3829 7.98879 15.0895 8.10732 14.7822C8.17116 14.5719 8.27199 14.249 8.3707 13.9556C8.3707 13.9443 8.3707 13.932 8.37498 13.9191C8.48074 12.9578 8.70226 12.0128 9.03477 11.1046L9.06641 11.0166L9.10072 10.9281C9.16081 10.7752 9.20319 10.6476 9.26167 10.4711C9.49769 9.76198 9.89246 8.57494 10.9503 7.27039L11.2887 6.86059L11.6283 6.55378C14.1268 4.28694 16.9226 4.09116 17.857 4.0284L17.9214 4.02356L18.0201 4.01873C18.1472 4.01282 18.2743 4.01014 18.3987 4.01014C19.5081 4.01406 20.6056 4.23852 21.6274 4.67045C21.8083 4.74565 22.0038 4.77984 22.1996 4.77057C22.3953 4.76129 22.5866 4.70879 22.7597 4.61681H22.765C23.715 4.06595 25.4551 3.06716 27.6737 2.80003C27.781 2.78393 27.8797 2.7716 27.9521 2.76248C28.1473 2.73781 28.459 2.70133 28.8419 2.66432C29.505 2.60103 30.5231 2.52539 31.6055 2.52539C33.49 2.52539 35.0498 2.74854 36.3746 3.20662L36.4604 3.23612L36.544 3.26778C39.6428 4.43875 40.9793 5.90794 42.082 7.31225C42.3785 7.68773 42.511 7.86206 42.8431 8.15493L43.0159 8.30889L43.1543 8.45103L43.2614 8.53576C43.7868 8.94236 44.7634 9.69922 45.6304 11.125L45.7822 11.3744L45.9102 11.6356C47.171 14.2104 46.7765 16.5453 46.5646 17.8005L46.5522 17.8751C46.403 18.7875 46.1434 19.6784 45.779 20.5281L45.7483 20.6011C45.745 20.6166 45.7408 20.6397 45.7342 20.6735C45.7176 20.7598 45.7081 20.8285 45.6967 20.9159L45.6839 21.0146C45.5981 21.7841 45.4286 22.542 45.1791 23.275C44.8036 24.4311 44.2479 25.5206 43.5318 26.5031C42.8239 27.5083 42.0301 28.3268 41.139 28.9748C40.7478 29.2605 40.4284 29.6332 40.2061 30.0635C39.9834 30.4937 39.8642 30.9698 39.857 31.4541C39.8495 32.058 39.7904 32.6603 39.6803 33.2543C39.2696 35.4691 38.3246 36.9689 37.7362 37.8828L36.895 39.1439C35.3888 41.2484 33.6118 42.5921 31.473 43.2467L31.3598 43.2823C31.1783 43.3392 30.9932 43.3842 30.8057 43.4162L30.67 43.4401C30.08 43.5445 29.4819 43.5965 28.8827 43.5948C28.7813 43.5948 28.6784 43.5948 28.5668 43.5922H28.5486C28.4976 43.5922 28.4413 43.5922 28.3812 43.5922C28.3393 43.5922 28.2289 43.5922 28.0293 43.6046L27.9408 43.6099L27.8545 43.6131C27.5675 43.6239 27.2108 43.6363 26.8927 43.6503C26.4567 43.6683 26.026 43.7529 25.6155 43.9008C24.076 44.4507 22.1922 44.7112 19.7505 44.7112Z" stroke="white" stroke-width="0.290538" stroke-miterlimit="10"/>
<g opacity="0.8">
<path opacity="0.6" d="M19.7511 42.5662C18.2862 42.5662 16.8266 42.4679 15.5918 42.3719L15.4631 42.3621L15.3349 42.3442C15.0393 42.3033 14.7448 42.271 14.4611 42.2403C13.3818 42.1231 12.0387 41.9765 10.57 41.2878L10.4263 41.2202L10.2933 41.1458C7.4739 39.5651 6.42042 37.1918 5.57287 35.2849C5.46884 35.0501 5.35834 34.8075 5.25105 34.5714C4.91903 33.9092 4.69425 33.2307 4.50972 32.6496L4.48827 32.5826L4.46949 32.5166C3.63916 29.5664 3.91325 27.6938 5.5187 25.3696L5.59005 25.2661L5.66783 25.1668C5.80785 24.9877 5.93604 24.8203 6.05833 24.6588C6.47727 24.1096 6.88011 23.5807 7.48249 22.9375C7.61457 22.7964 7.69363 22.6139 7.70616 22.421L7.75175 21.7269L7.73405 21.4995L7.74208 21.2634C7.80484 19.3597 8.76125 17.9275 9.27299 17.1583C9.33199 17.0693 9.39367 16.9776 9.43015 16.9191L9.51651 16.7818L9.59645 16.6745C9.69193 16.5184 9.94296 15.9863 10.1329 15.4757C10.1983 15.2611 10.3249 14.8518 10.4365 14.5273C10.4692 14.4238 10.4724 14.3986 10.4992 14.1765C10.5864 13.3731 10.7714 12.5834 11.0501 11.8249L11.071 11.7659L11.0941 11.7064C11.1735 11.5036 11.2287 11.3379 11.2926 11.1458C11.4948 10.5375 11.7994 9.62081 12.6116 8.61934L12.8379 8.34578L13.0621 8.14303C14.8124 6.55368 16.7193 6.25275 18.0062 6.16638L18.0496 6.16263H18.1161C18.2095 6.15835 18.3023 6.15619 18.3934 6.15619C19.4925 6.15619 20.8072 6.68347 21.4976 7.0021C21.6627 7.07786 21.8411 7.12021 22.0227 7.12677C22.2042 7.1333 22.3852 7.10388 22.5554 7.04018C22.9849 6.88458 23.4035 6.70036 23.8084 6.48876C24.6865 5.97918 26.1433 5.13758 27.9526 4.92677C28.0524 4.91175 28.142 4.90049 28.216 4.89082C28.3979 4.86829 28.6848 4.83717 29.0405 4.80018C29.6573 4.74117 30.6019 4.6709 31.6002 4.6709C33.2414 4.6709 34.5724 4.85543 35.6682 5.23414L35.725 5.25396L35.7789 5.27489C38.367 6.25275 39.3969 7.3765 40.3876 8.6376C40.7092 9.04419 40.9368 9.3349 41.4093 9.7576L41.5242 9.86006L41.6313 9.96733C41.728 10.0629 41.8318 10.1506 41.9418 10.2297C42.3862 10.5735 43.1307 11.1496 43.791 12.2369L43.8919 12.4031L43.9778 12.5775C44.9345 14.5305 44.6272 16.3521 44.4434 17.4405L44.431 17.5145C44.3089 18.2658 44.0947 18.9993 43.7933 19.6982V19.7036C43.7097 19.8843 43.6522 20.0759 43.6222 20.2727C43.5964 20.41 43.58 20.5205 43.5647 20.6428L43.5516 20.7426C43.4827 21.3704 43.3456 21.9888 43.1425 22.5867C42.8362 23.5408 42.3781 24.4392 41.7858 25.2473C40.9116 26.4944 39.901 27.372 38.6834 27.9293C38.3876 28.0643 38.1348 28.2784 37.9533 28.548C37.7714 28.8176 37.6676 29.1321 37.6535 29.457C37.6476 29.59 37.6454 29.6994 37.6493 29.7606C37.7094 30.6987 37.7773 31.7619 37.5683 32.8571C37.2329 34.6687 36.4659 35.8864 35.8893 36.7804C35.8893 36.7804 33.2437 40.4624 30.8363 41.1971L30.5773 41.278L30.2989 41.327C29.8304 41.4103 29.3554 41.4514 28.8795 41.4498C28.7894 41.4498 28.6972 41.4498 28.5979 41.4472H28.5894C28.5255 41.4472 28.4563 41.4472 28.378 41.4472C28.2836 41.4472 28.1297 41.4472 27.8904 41.4638L27.832 41.4674H27.774C26.853 41.5007 25.9824 41.5318 25.7405 41.5791C25.611 41.5993 25.4848 41.6362 25.365 41.6895C24.0026 42.2867 22.2158 42.5662 19.7511 42.5662Z" stroke="white" stroke-width="0.269786" stroke-miterlimit="10"/>
<path opacity="0.6" d="M19.751 40.4204C18.3596 40.4204 16.9516 40.3257 15.7575 40.2326L15.6937 40.228L15.6299 40.2189C15.3032 40.1738 14.9932 40.1399 14.6928 40.1072C13.6768 39.9969 12.626 39.8826 11.4808 39.3454L11.4089 39.3111L11.3424 39.2742C9.14316 38.0406 8.32621 36.198 7.53395 34.4138C7.4213 34.1608 7.30489 33.8989 7.18476 33.6387C6.91654 33.1087 6.72667 32.5402 6.55609 32.0017L6.54534 31.9684L6.53571 31.9346C5.8754 29.5862 6.04327 28.3874 7.28667 26.5889L7.32262 26.5352L7.36121 26.4853C7.50711 26.2992 7.63961 26.1254 7.76729 25.9575C8.36484 25.1738 8.88138 24.4964 10.0389 23.4278L10.0422 23.4246C10.127 23.3435 10.1866 23.2396 10.2138 23.1254C10.2409 23.0112 10.2344 22.8915 10.1951 22.7809L9.98636 22.1861C9.94443 21.9985 9.91504 21.8084 9.89839 21.6169V21.6105L9.88552 21.4496L9.88983 21.3316C9.93218 20.0394 10.6118 19.0208 11.0613 18.3465C11.1316 18.2392 11.1987 18.1411 11.2507 18.0574L11.2936 17.9887L11.3419 17.9238C11.5806 17.602 11.9684 16.711 12.1722 16.159C12.2259 15.989 12.3632 15.5325 12.4774 15.2016C12.5588 14.9527 12.6115 14.6953 12.6346 14.4345C12.7021 13.7887 12.8502 13.1538 13.0755 12.5448L13.0863 12.5147L13.0981 12.4853C13.1973 12.2305 13.267 12.0213 13.3346 11.8185C13.5143 11.2783 13.7176 10.6658 14.2835 9.96789L14.3972 9.83055L14.5083 9.73024C15.7516 8.60058 17.1146 8.37315 18.166 8.30343H18.188H18.2223C18.2813 8.30343 18.3403 8.29968 18.3988 8.29968C19.4217 8.29968 20.2081 8.71914 20.7284 8.99699L20.8496 9.06138L20.8678 9.07101C21.0105 9.14827 21.136 9.21586 21.2524 9.27323C21.5757 9.43542 21.9473 9.47359 22.2968 9.38053C23.0091 9.18902 24.1206 8.7674 24.8683 8.35653L24.8839 8.34742C25.6702 7.89148 26.8546 7.20489 28.2428 7.05253C28.3302 7.03859 28.4139 7.0284 28.4928 7.01821C28.6537 6.99783 28.9219 6.96456 29.2497 6.93508C29.8204 6.88143 30.692 6.81543 31.6055 6.81543C33.0044 6.81543 34.1058 6.96136 34.9724 7.26066L35.0008 7.27085L35.0299 7.28159C37.1063 8.06634 37.8638 8.88756 38.7076 9.96358C39.0508 10.4008 39.3753 10.8138 39.9905 11.3615L40.048 11.4151L40.1015 11.4688C40.2681 11.6366 40.4473 11.791 40.638 11.9306C41.007 12.2165 41.5128 12.6081 41.9673 13.3558L42.0176 13.439L42.0604 13.5264C42.7135 14.8594 42.496 16.1478 42.3373 17.0881L42.3249 17.1621C42.2299 17.7554 42.0601 18.3341 41.8191 18.8845C41.6787 19.2014 41.5788 19.5349 41.522 19.8769C41.4844 20.0753 41.4625 20.2304 41.4442 20.3741L41.4312 20.476C41.3796 20.9621 41.2744 21.441 41.1174 21.9039C40.8793 22.6549 40.5195 23.3617 40.0522 23.9959C39.2637 25.1277 38.3895 25.8256 37.2281 26.1951C36.6717 26.3711 36.1926 26.7338 35.8726 27.2218L35.7802 27.3634L35.6784 27.4798C35.3835 27.8156 35.4664 29.1169 35.5174 29.8936C35.5713 30.746 35.6284 31.6273 35.4694 32.4571C35.2075 33.8757 34.5998 34.8334 34.0558 35.6756C34.0558 35.6756 32.0357 38.5898 30.213 39.1433L30.0805 39.1851L29.9411 39.2093C29.5939 39.2713 29.2419 39.302 28.8892 39.3004C28.8098 39.3004 28.7283 39.3004 28.6419 39.3004C28.5652 39.3004 28.481 39.3004 28.3877 39.3004C28.2637 39.3004 28.0658 39.3004 27.7644 39.3213H27.7354H27.7064C26.4839 39.366 25.7464 39.3921 25.3387 39.4715C25.0644 39.5201 24.7965 39.6001 24.5406 39.7102C23.449 40.1941 21.9245 40.4204 19.751 40.4204Z" stroke="white" stroke-width="0.269786" stroke-miterlimit="10"/>
</g>
</g>
</g>
<defs>
<radialGradient id="paint0_radial_180_14869" cx="0" cy="0" r="1" gradientUnits="userSpaceOnUse" gradientTransform="translate(24 26.515) rotate(90) scale(26.9635)">
<stop offset="0.166667" stop-color="#073183"/>
<stop offset="1" stop-color="#0054F9"/>
</radialGradient>
</defs>
</svg>
