<svg width="48" height="48" viewBox="0 0 48 48" fill="none" xmlns="http://www.w3.org/2000/svg">
<path d="M23.6155 46.6161C36.1057 46.6161 46.2311 36.4907 46.2311 24.0005C46.2311 11.5103 36.1057 1.38501 23.6155 1.38501C11.1253 1.38501 1 11.5103 1 24.0005C1 36.4907 11.1253 46.6161 23.6155 46.6161Z" fill="#FFC412"/>
<path d="M21.107 36.0349C20.8662 35.8365 20.8662 35.4635 21.107 35.2651C21.9259 34.5905 22.9678 34.1859 24.1041 34.1859C25.2404 34.1859 26.2824 34.5905 27.1013 35.2651C27.342 35.4635 27.342 35.8365 27.1013 36.0349C26.2824 36.7096 25.2397 37.1142 24.1041 37.1142C22.9686 37.1142 21.9259 36.7096 21.107 36.0349ZM19.5232 34.5874L16.5369 31.5504C16.2528 31.2617 16.2606 30.7853 16.5617 30.5161C18.6485 28.6467 21.2989 27.6258 24.105 27.6258C26.9109 27.6258 29.5613 28.6467 31.6481 30.5161C31.9492 30.7862 31.9562 31.2624 31.673 31.5504L28.6865 34.5874C28.4358 34.8423 28.0333 34.8715 27.7577 34.644C26.7267 33.7947 25.451 33.3327 24.1057 33.3327C22.7604 33.3327 21.4847 33.7939 20.4537 34.644C20.3283 34.7479 20.1758 34.7983 20.0241 34.7983C19.8414 34.7983 19.6602 34.7259 19.5232 34.5874ZM27.7562 19.4149C28.0318 19.1874 28.4343 19.2165 28.685 19.4723L31.6721 22.5091C31.9562 22.798 31.9485 23.2743 31.6474 23.5435C29.5613 25.413 26.9101 26.4339 24.1041 26.4339C21.2982 26.4339 18.6478 25.413 16.5609 23.5435C16.2598 23.2735 16.252 22.7973 16.5361 22.5091L19.5225 19.4723C19.7733 19.2173 20.1758 19.1882 20.4513 19.4149C21.4824 20.2643 22.758 20.7255 24.1033 20.7255C25.4495 20.7263 26.7251 20.2643 27.7562 19.4149ZM21.6875 8.01997L21.679 8.02391C20.0047 8.72685 18.695 10.1067 18.0626 11.8322L12.6364 26.763C12.3616 27.4053 12.2091 28.113 12.2091 28.8576C12.2091 30.5603 13.0048 32.0724 14.2379 33.0342C14.3246 33.102 14.4059 33.1751 14.4818 33.2547C14.5197 33.294 14.5584 33.3334 14.5986 33.372L20.6743 39.0528C21.3198 39.6795 22.1163 40.1219 22.9833 40.3359C23.7682 40.5296 24.5872 40.5296 25.372 40.3359C26.2398 40.1219 27.0355 39.6795 27.6811 39.0528L33.7567 33.372C33.9348 33.1996 34.0935 33.0335 34.263 32.8328C34.2877 32.8036 34.3133 32.7753 34.3403 32.7478C35.3172 31.737 36 30.3933 36 28.8584C36 28.4648 35.9566 28.0815 35.876 27.7131C35.8598 27.6375 35.8366 27.5628 35.8111 27.4904L30.2703 11.8227C29.6387 10.1028 28.3336 8.72685 26.6655 8.02391C25.8674 7.68701 25.0198 7.51855 24.1723 7.51855C23.3278 7.51855 22.4833 7.68543 21.6875 8.01997Z" fill="black"/>
</svg>
