<svg width="48" height="48" viewBox="0 0 48 48" fill="none" xmlns="http://www.w3.org/2000/svg">
<circle cx="24" cy="24" r="24" fill="white"/>
<path d="M24.2677 37C14.7302 37 7 34.2443 7 30.5522C7 28.6256 9.10551 26.89 12.4755 25.6671C15.1059 27.3551 19.5199 28.22 24.5242 28.22C29.4093 28.22 33.7278 27.1642 36.3821 25.5479C39.5613 26.7586 41.5356 28.4467 41.5356 30.3077C41.5356 34.0058 33.8053 37 24.2677 37Z" fill="black"/>
<path d="M24.369 27.391C17.1398 27.391 11.2764 25.1244 11.2764 22.327C11.2764 20.7761 13.0837 19.3863 15.9169 18.4619C17.9389 19.5177 20.969 20.1916 24.369 20.1916C27.7688 20.1916 30.7989 19.5177 32.8208 18.4619C35.6601 19.3924 37.4614 20.7763 37.4614 22.327C37.4674 25.1244 31.6042 27.391 24.369 27.391Z" fill="black"/>
<path d="M24.3213 19.3506C18.7325 19.3506 14.1992 17.4777 14.1992 15.1753C14.1992 12.8729 18.7325 11 24.3213 11C29.9102 11 34.4434 12.8729 34.4434 15.1753C34.4434 17.4777 29.9102 19.3506 24.3213 19.3506Z" fill="black"/>
</svg>
