<svg width="48" height="48" viewBox="0 0 48 48" fill="none" xmlns="http://www.w3.org/2000/svg">
<path d="M0 24C0 10.7452 10.7452 0 24 0V0C37.2548 0 48 10.7452 48 24V24C48 37.2548 37.2548 48 24 48V48C10.7452 48 0 37.2548 0 24V24Z" fill="#FF65F7"/>
<g clip-path="url(#clip0_262_10020)">
<path d="M23.2608 0C23.7578 0 24.2523 0 24.7493 0C24.7613 0.0120036 24.7781 0.0120036 24.7949 0.0120036C25.131 0.0096029 25.4647 0.0288087 25.8008 0.0336102C26.2449 0.0408123 26.6843 0.0912276 27.1236 0.146444C27.6902 0.220867 28.2519 0.309694 28.8113 0.427329C29.6083 0.592979 30.3982 0.79464 31.176 1.03711C32.0499 1.3084 32.9045 1.63249 33.7424 2.00221C34.4482 2.3143 35.1348 2.66241 35.8094 3.03932C36.3183 3.32501 36.8153 3.6299 37.3002 3.9516C37.9892 4.40773 38.6542 4.89748 39.2904 5.42804C39.7562 5.81696 40.2075 6.22268 40.6492 6.63801C41.1102 7.07014 41.5351 7.53588 41.96 8.00162C42.4546 8.54658 42.9155 9.11796 43.3501 9.70854C43.8926 10.4456 44.3944 11.209 44.8505 12.0036C45.093 12.4262 45.3234 12.8559 45.5395 13.2928C45.9236 14.0611 46.2621 14.8509 46.5598 15.6575C46.8863 16.5434 47.1648 17.4437 47.3833 18.3608C47.5753 19.165 47.7314 19.974 47.837 20.7951C47.8994 21.2776 47.957 21.7602 47.9642 22.2475C47.969 22.55 47.9882 22.8525 47.9858 23.1574C47.9858 23.1886 47.9762 23.2222 47.9978 23.251C47.9978 23.748 47.9978 24.2425 47.9978 24.7395C47.9738 24.7803 47.9858 24.8259 47.9858 24.8691C47.9882 25.3277 47.9762 25.7886 47.9426 26.2447C47.9042 26.8017 47.8202 27.3539 47.729 27.906C47.6041 28.6551 47.4481 29.3969 47.256 30.1315C46.9535 31.2719 46.5718 32.3858 46.1061 33.4709C45.8948 33.9631 45.6691 34.448 45.4243 34.9258C45.0282 35.6964 44.596 36.4478 44.1183 37.1728C43.6549 37.8787 43.1604 38.5581 42.6274 39.2111C42.3418 39.5592 42.0489 39.9025 41.7392 40.2314C41.4559 40.5339 41.1798 40.846 40.8797 41.134C40.414 41.5782 39.9434 42.0151 39.4513 42.428C38.7623 43.0066 38.0421 43.5444 37.2954 44.0413C36.6496 44.471 35.9822 44.8648 35.298 45.2273C34.441 45.6834 33.5575 46.0867 32.65 46.4372C31.901 46.7277 31.1376 46.9774 30.3622 47.1887C29.6611 47.3807 28.9529 47.544 28.2375 47.6688C27.7694 47.7504 27.2988 47.8177 26.8283 47.8753C26.1657 47.9569 25.5007 47.9761 24.8333 47.9905C24.346 48.0001 23.8586 48.0049 23.3713 47.9953C22.8455 47.9881 22.3173 47.9881 21.7916 47.9401C20.9897 47.8633 20.1903 47.7552 19.4005 47.5968C18.4906 47.4143 17.5927 47.1935 16.7093 46.9078C15.8234 46.6221 14.9543 46.2908 14.1045 45.9091C12.7433 45.2969 11.4565 44.5599 10.2321 43.71C9.65835 43.3115 9.10138 42.889 8.57082 42.4352C8.14589 42.0727 7.73297 41.6958 7.32485 41.3165C6.98394 40.9996 6.66465 40.6659 6.35015 40.325C5.63714 39.5544 4.97214 38.7405 4.36956 37.8811C3.8438 37.132 3.35886 36.3566 2.91712 35.5548C2.33375 34.4912 1.8344 33.3893 1.41667 32.2514C1.10458 31.3895 0.840501 30.5132 0.626836 29.625C0.43958 28.8519 0.288335 28.0717 0.182703 27.2843C0.098678 26.6553 0.0314578 26.0263 0.0194542 25.3901C0.00745059 24.7059 -0.00695373 24.0241 0.00264915 23.3399C0.00745059 22.8981 0.00985131 22.454 0.0410607 22.0123C0.0794722 21.4673 0.146692 20.9247 0.230718 20.3846C0.360356 19.5347 0.533208 18.6945 0.754075 17.8638C1.05657 16.7187 1.44068 15.6023 1.90882 14.5124C2.12729 14.001 2.36256 13.4993 2.61703 13.0047C3.00595 12.2485 3.43328 11.5115 3.90142 10.8009C4.41517 10.0206 4.96974 9.2692 5.57232 8.55379C5.91802 8.14566 6.28053 7.75194 6.64304 7.35823C6.96234 7.01012 7.30564 6.68602 7.64894 6.36673C8.39077 5.67532 9.1758 5.03192 10.0016 4.44374C10.7315 3.92519 11.4829 3.44024 12.2655 3.00331C13.0434 2.56878 13.8428 2.17746 14.6662 1.83175C15.264 1.58208 15.869 1.35401 16.4836 1.14995C17.3983 0.847456 18.3297 0.602582 19.2732 0.412925C19.907 0.285686 20.5456 0.184856 21.189 0.110433C21.6571 0.0576174 22.1277 0.0360109 22.5982 0.0192058C22.8167 0.0120036 23.04 0.0312094 23.2608 0Z" fill="#00E3DA"/>
<path d="M24.7947 39.1941C20.9847 39.1413 17.6165 37.9049 14.7476 35.3842C12.3253 33.2547 10.7576 30.5996 10.0014 27.4642C9.66771 26.079 9.53807 24.6722 9.6173 23.2509C9.81416 19.7099 11.0721 16.5889 13.4152 13.9241C15.2302 11.8595 17.4605 10.4071 20.0724 9.54524C21.6881 9.01228 23.3494 8.7554 25.0491 8.79141C28.463 8.86583 31.5215 9.95576 34.2175 12.0564C34.9785 12.6494 35.0409 13.7465 34.3591 14.4355C33.7589 15.0405 33.1564 15.6407 32.5538 16.2432C30.3691 18.4279 28.1845 20.6174 25.995 22.7996C25.6133 23.1813 25.4332 23.6279 25.4717 24.1608C25.4981 24.5233 25.6109 24.869 25.8822 25.1091C26.5592 25.7069 27.1714 26.3671 27.8076 27.0033C29.9874 29.1711 32.1577 31.3486 34.3327 33.526C34.8225 34.0158 34.9545 34.7096 34.6832 35.3266C34.5752 35.5738 34.4143 35.7779 34.2007 35.9436C32.3257 37.408 30.2251 38.3923 27.894 38.8772C26.8281 39.0933 25.8726 39.1893 24.7947 39.1941Z" fill="#FDFDFD"/>
</g>
<defs>
<clipPath id="clip0_262_10020">
<rect width="47.9976" height="48" fill="white"/>
</clipPath>
</defs>
</svg>
