<svg width="48" height="48" viewBox="0 0 48 48" fill="none" xmlns="http://www.w3.org/2000/svg">
<path d="M0 24C0 10.7452 10.7452 0 24 0V0C37.2548 0 48 10.7452 48 24V24C48 37.2548 37.2548 48 24 48V48C10.7452 48 0 37.2548 0 24V24Z" fill="#FEF700"/>
<path d="M21.4975 11.7132C21.1239 11.0728 20.8037 10.4457 20.817 9.69852C20.8304 9.25823 20.8571 8.81793 21.2974 8.60445C21.751 8.39097 22.1646 8.5911 22.5115 8.91132C22.6449 9.0314 22.765 9.15149 22.9385 9.31159C23.0586 8.60445 23.0586 7.91064 23.3788 7.29689C23.6323 6.81656 23.9392 6.36292 24.5662 6.37626C25.1667 6.38961 25.4468 6.80322 25.687 7.27021C25.9805 7.83059 26.0873 8.431 26.0739 9.05809C26.2207 9.11146 26.2874 9.01806 26.3675 8.95135C26.6877 8.64447 27.0613 8.40431 27.5016 8.5911C27.9819 8.79124 28.0353 9.28491 28.0353 9.72521C28.0353 10.2322 27.9952 10.7793 27.7284 11.2062C27.3815 11.7799 27.675 11.8733 28.1287 11.9934C30.4102 12.5938 32.3716 13.7279 33.9993 15.4624C35.9874 17.5839 37.0281 20.159 37.5217 22.9742C37.7219 24.1083 37.8019 25.2558 37.8286 26.4166C37.8419 26.8969 37.6952 27.017 37.2282 27.0036C36.3876 26.9636 35.5337 26.977 34.6931 27.0036C34.2795 27.017 34.1461 26.9102 34.1194 26.4566C34.0394 24.3085 33.6791 22.2404 32.5717 20.3458C31.064 17.7573 28.7558 16.3564 25.8338 15.8894C24.0059 15.5959 22.2046 15.6759 20.4568 16.303C17.6549 17.317 16.0538 19.4518 15.1198 22.187C14.6528 23.5746 14.4127 25.0156 14.3193 26.4833C14.2926 26.8302 14.2526 27.0036 13.8523 26.9903C12.8916 26.9636 11.9443 26.9769 10.9837 26.9769C10.7568 26.9769 10.53 27.0036 10.5701 26.6434C10.8502 23.7748 11.3039 20.9328 12.6248 18.3177C14.386 14.8087 17.1345 12.5938 21.0305 11.8467C21.1906 11.82 21.3374 11.7666 21.4975 11.7132Z" fill="black"/>
<path d="M20.8438 22.3069C20.8438 22.0401 20.8438 21.7732 20.8438 21.5064C20.8572 21.0928 21.044 20.8392 21.4709 20.7859C21.9246 20.7325 22.2448 20.986 22.2848 21.3863C22.3515 22.0668 22.3515 22.7606 22.2848 23.441C22.2448 23.8413 21.9379 24.0948 21.4709 24.0281C21.0573 23.9747 20.8572 23.7212 20.8438 23.3076C20.8305 22.974 20.8438 22.6405 20.8438 22.3069Z" fill="black"/>
<path d="M28.0621 22.4004C28.0621 22.7073 28.0754 23.0275 28.0621 23.3344C28.0354 23.7613 27.7953 24.0282 27.3416 24.0415C26.888 24.0415 26.6345 23.7747 26.6078 23.3611C26.5678 22.7473 26.5811 22.1202 26.6078 21.5065C26.6211 21.0795 26.8746 20.8127 27.3283 20.7993C27.7819 20.7993 28.0354 21.0395 28.0621 21.4798C28.0888 21.7733 28.0621 22.0935 28.0621 22.4004Z" fill="black"/>
<path d="M31.5311 32.4209C31.4644 30.4596 29.8233 28.9252 27.7686 28.9252C26.928 28.9252 26.0874 28.9385 25.2468 28.9118C24.8466 28.8985 24.7131 28.9919 24.7265 29.4189C24.7532 30.4863 24.7398 31.5403 24.7398 32.6077C24.7398 33.7151 24.7398 34.8225 24.7398 35.93C24.7398 36.1835 24.7265 36.3969 25.1001 36.3836C26.0741 36.3569 27.0481 36.4236 28.0221 36.3569C30.1568 36.2368 31.6112 34.5824 31.5311 32.4209ZM29.1695 34.1421C28.7159 34.7025 27.3149 35.0894 26.7278 34.8092C26.5277 34.7158 26.5944 34.5557 26.5944 34.4089C26.5811 33.8085 26.5944 33.2081 26.5944 32.6077C26.5944 32.0073 26.5944 31.4069 26.5944 30.8065C26.5944 30.633 26.5677 30.4729 26.8346 30.4195C27.7819 30.2061 28.8226 30.5796 29.3029 31.3268C29.8366 32.1941 29.7833 33.3682 29.1695 34.1421Z" fill="black"/>
<path d="M15.5336 32.4609C15.4936 30.4862 13.8525 28.9385 11.7978 28.9252C10.9572 28.9252 10.1166 28.9519 9.27605 28.9118C8.84909 28.8985 8.70233 28.9919 8.71567 29.4455C8.7557 30.5129 8.72901 31.5803 8.72901 32.6344C8.72901 33.7418 8.74235 34.8492 8.72901 35.9566C8.72901 36.2502 8.78238 36.3836 9.12928 36.3836C10.0633 36.3569 10.9972 36.3969 11.9178 36.3703C14.0793 36.2902 15.587 34.6491 15.5336 32.4609ZM11.5576 34.8092C11.3975 34.8092 11.2374 34.7825 11.0906 34.8092C10.6637 34.8759 10.5569 34.7024 10.5836 34.3022C10.6236 33.7551 10.5969 33.1948 10.5969 32.6477C10.5969 32.2474 10.5969 31.8472 10.5969 31.4469C10.5969 30.4195 10.5969 30.4195 11.5976 30.4329C12.8385 30.4462 13.679 31.3535 13.6657 32.6877C13.6524 33.982 12.8385 34.8092 11.5576 34.8092Z" fill="black"/>
<path d="M20.0298 28.9248C17.8684 28.9248 16.2939 30.4859 16.2939 32.634C16.2939 34.7554 17.9084 36.3699 20.0298 36.3699C22.1112 36.3699 23.739 34.7554 23.7524 32.674C23.7657 30.5392 22.1646 28.9248 20.0298 28.9248ZM19.9765 34.8088C18.9224 34.7955 18.0818 33.8482 18.0685 32.6607C18.0551 31.4599 18.9357 30.4592 19.9898 30.4592C21.0705 30.4592 21.9111 31.4198 21.9111 32.6607C21.9244 33.8882 21.0839 34.8222 19.9765 34.8088Z" fill="black"/>
<path d="M36.014 28.9248C33.8526 28.9248 32.2915 30.4859 32.2915 32.6607C32.2915 34.7821 33.9193 36.3966 36.0407 36.3699C38.1221 36.3565 39.7366 34.7288 39.7499 32.6607C39.7499 30.5259 38.1488 28.9248 36.014 28.9248ZM36.0007 34.8088C34.92 34.8088 34.066 33.8482 34.0794 32.6207C34.0927 31.4198 35 30.4192 36.0541 30.4592C37.1348 30.4992 37.9487 31.4599 37.9353 32.7007C37.9087 33.8882 37.0681 34.8088 36.0007 34.8088Z" fill="black"/>
</svg>
