<svg width="48" height="48" viewBox="0 0 48 48" fill="none" xmlns="http://www.w3.org/2000/svg">
<circle cx="24" cy="24" r="24" fill="url(#paint0_linear_180_14701)"/>
<path fill-rule="evenodd" clip-rule="evenodd" d="M10.8091 29.3846L22.6812 10C19.2344 11.1966 12.0346 14.5231 10.8091 18.2564C9.27719 22.9231 10.2984 27.2308 10.8091 29.3846ZM14.6388 24.7178L23.0642 37.9998C20.6387 37.2819 15.4048 35.1998 13.8729 32.6152C12.341 30.0306 13.7452 26.2733 14.6388 24.7178ZM37.1909 29.3846L25.3188 10C28.7655 11.1966 35.9654 14.5231 37.1909 18.2564C38.7228 22.9231 37.7015 27.2308 37.1909 29.3846ZM33.3613 24.7178L24.936 37.9998C27.3615 37.2819 32.5954 35.1998 34.1273 32.6152C35.6592 30.0306 34.2549 26.2733 33.3613 24.7178Z" fill="white"/>
<defs>
<linearGradient id="paint0_linear_180_14701" x1="9" y1="5" x2="38" y2="48" gradientUnits="userSpaceOnUse">
<stop stop-color="#7697F8"/>
<stop offset="1" stop-color="#4DB5F2"/>
</linearGradient>
</defs>
</svg>
