<svg width="48" height="48" viewBox="0 0 48 48" fill="none" xmlns="http://www.w3.org/2000/svg">
<circle cx="24" cy="24" r="24" fill="white"/>
<path d="M9.99226 22.26L19.2547 8.91992L23.9165 15.6783L19.1887 22.439H10.0865C10.0658 22.4386 10.0456 22.4327 10.028 22.4218C10.0104 22.411 9.99606 22.3956 9.98643 22.3773C9.9768 22.359 9.97226 22.3385 9.97329 22.3179C9.97431 22.2972 9.98087 22.2772 9.99226 22.26V22.26Z" fill="#7E49FC"/>
<path d="M37.8384 22.26L28.576 8.91992L23.9165 15.6783L28.6419 22.439H37.7442C37.7648 22.4386 37.785 22.4327 37.8026 22.4218C37.8202 22.411 37.8346 22.3956 37.8442 22.3773C37.8538 22.359 37.8584 22.3385 37.8574 22.3179C37.8563 22.2972 37.8498 22.2772 37.8384 22.26V22.26Z" fill="#7E49FC"/>
<path d="M37.9987 24.187C38.0228 26.0518 37.6764 27.9028 36.9795 29.6326C36.2825 31.3624 35.249 32.9365 33.9389 34.2637C32.6287 35.5909 31.068 36.6447 29.3474 37.364C27.6267 38.0832 25.7804 38.4536 23.9155 38.4536C22.0506 38.4536 20.2042 38.0832 18.4836 37.364C16.7629 36.6447 15.2022 35.5909 13.8921 34.2637C12.582 32.9365 11.5484 31.3624 10.8515 29.6326C10.1546 27.9028 9.80811 26.0518 9.83223 24.187H18.7837C18.7691 24.8696 18.8909 25.5482 19.142 26.183C19.393 26.8179 19.7684 27.3962 20.2459 27.8841C20.7234 28.372 21.2936 28.7596 21.9229 29.0242C22.5522 29.2888 23.2281 29.4252 23.9108 29.4252C24.5935 29.4252 25.2693 29.2888 25.8986 29.0242C26.5279 28.7596 27.0981 28.372 27.5756 27.8841C28.0532 27.3962 28.4285 26.8179 28.6796 26.183C28.9307 25.5482 29.0525 24.8696 29.0378 24.187H37.9987Z" fill="#0066FF"/>
</svg>
