<svg width="48" height="48" viewBox="0 0 48 48" fill="none" xmlns="http://www.w3.org/2000/svg">
<circle cx="24" cy="24" r="24" fill="#172852"/>
<path d="M19.3317 10.7255C22.1421 9.67425 25.3053 9.67185 28.1685 10.5359C31.8957 11.6927 35.0421 14.5055 36.6861 18.0359C37.1397 19.0415 37.5741 20.0903 37.6173 21.2087C35.5221 19.9943 33.2253 19.2071 30.9237 18.4895C27.2421 17.1623 23.3877 16.2407 19.9029 14.4167C19.0917 13.9319 18.0573 13.4351 17.8365 12.4247C17.7477 11.5511 18.6717 11.0639 19.3317 10.7255Z" fill="#FFD83D"/>
<path d="M10.8478 19.2216C11.6614 17.0136 12.9958 14.964 14.8078 13.4448C15.2686 17.2344 16.8814 20.8968 19.5454 23.652C22.7398 26.9712 27.2902 29.0088 31.9197 28.932C33.7581 28.9896 35.5557 28.5648 37.3485 28.2216C35.5845 34.596 28.5981 38.8272 22.1254 37.8096C18.2182 37.3104 14.611 34.9968 12.4342 31.7304C9.97899 28.1208 9.35979 23.328 10.8478 19.2216Z" fill="#FFD83D"/>
<path d="M30.9238 18.4897C33.2254 19.2073 35.5222 19.9945 37.6174 21.2089L37.759 21.2833C37.9534 22.7449 38.095 24.2353 37.8358 25.6993C36.7822 25.2529 35.9278 24.4681 35.035 23.7745C33.3166 22.3441 31.5622 20.7073 30.9238 18.4897Z" fill="#FF6F03"/>
</svg>
