<svg width="48" height="48" viewBox="0 0 48 48" fill="none" xmlns="http://www.w3.org/2000/svg">
<path d="M24 48C37.2548 48 48 37.2548 48 24C48 10.7452 37.2548 0 24 0C10.7452 0 0 10.7452 0 24C0 37.2548 10.7452 48 24 48Z" fill="#2775CA"/>
<path d="M19.5 40.6876C19.5 41.2501 19.05 41.5689 18.525 41.4001C11.25 39.0751 6 32.2876 6 24.2439C6 16.2189 11.25 9.41264 18.525 7.08764C19.0687 6.91889 19.5 7.23764 19.5 7.80014V9.20639C19.5 9.58139 19.2187 10.0126 18.8625 10.1439C13.1062 12.2626 9 17.7939 9 24.2439C9 30.7126 13.1062 36.2251 18.8625 38.3251C19.2187 38.4564 19.5 38.8876 19.5 39.2626V40.6876Z" fill="white"/>
<path d="M25.4998 35.4937C25.4998 35.9062 25.1623 36.2437 24.7498 36.2437H23.2498C22.8373 36.2437 22.4998 35.9062 22.4998 35.4937V33.1311C19.2186 32.6812 17.6248 30.8624 17.1936 28.3499C17.1186 27.9187 17.4561 27.5437 17.8873 27.5437H19.5936C19.9498 27.5437 20.2498 27.8062 20.3248 28.1437C20.6436 29.6249 21.5061 30.7687 24.1311 30.7687C26.0623 30.7687 27.4498 29.6812 27.4498 28.0687C27.4498 26.4562 26.6436 25.8374 23.7936 25.3687C19.5936 24.8062 17.6061 23.5312 17.6061 20.2499C17.6061 17.7187 19.5373 15.7312 22.4998 15.3187V12.9937C22.4998 12.5812 22.8373 12.2437 23.2498 12.2437H24.7498C25.1623 12.2437 25.4998 12.5812 25.4998 12.9937V15.3749C27.9186 15.8062 29.4561 17.1749 29.9623 19.4624C30.0561 19.8937 29.7186 20.2874 29.2686 20.2874H27.6936C27.3561 20.2874 27.0748 20.0624 26.9811 19.7437C26.5498 18.2999 25.5186 17.6624 23.7186 17.6624C21.7311 17.6624 20.6998 18.6187 20.6998 19.9687C20.6998 21.3937 21.2811 22.1062 24.3373 22.5374C28.4623 23.0999 30.5998 24.2812 30.5998 27.7874C30.5998 30.4499 28.6123 32.6062 25.5186 33.0937V35.4937H25.4998Z" fill="white"/>
<path d="M28.5 40.6877C28.5 41.2502 28.9312 41.569 29.475 41.4002C36.75 39.0752 42 32.2877 42 24.244C42 16.219 36.75 9.41274 29.475 7.12524C28.95 6.95649 28.5 7.27524 28.5 7.83774V9.24399C28.5 9.61899 28.7812 10.0502 29.1375 10.1815C34.8937 12.2815 39 17.794 39 24.2627C39 30.7127 34.875 36.244 29.1375 38.344C28.7437 38.4752 28.5 38.869 28.5 39.2815V40.6877Z" fill="white"/>
</svg>
