<svg width="48" height="48" viewBox="0 0 48 48" fill="none" xmlns="http://www.w3.org/2000/svg">
<circle cx="24" cy="24" r="24" fill="white"/>
<path d="M15.2341 11.1324C13.4489 13.652 15.978 16.7316 17.4656 17.9564L34.4808 13.232C33.2721 11.8322 30.619 9.248 27.7863 8.50777C23.6263 7.4207 17.4656 7.98285 15.2341 11.1324Z" fill="#0D3BA5"/>
<path d="M15.4909 29.6777L8.87062 21.7858C8.50283 21.6043 7.82242 22.6022 8.04309 28.0449C8.26377 33.4876 12.3646 37.9325 14.3875 39.4746L15.4909 29.6777Z" fill="#5493F7"/>
<path d="M9.37939 17.4118C12.6895 17.4118 19.3097 14.4185 19.3097 11.6969C19.3097 5.22838 11.0345 13.0577 9.37939 17.4118Z" fill="#5493F7"/>
<path d="M18.4819 16.5961C16.0545 19.8617 17.4705 22.311 18.4819 23.1274C24.4585 23.9438 36.6324 24.869 37.5151 22.0388C38.6185 18.501 35.86 13.3305 32.5499 11.9698C29.2398 10.6091 21.5162 12.5141 18.4819 16.5961Z" fill="#5493F7"/>
<path d="M39.9977 20.6782L14.6201 23.3996V39.9999H25.378C30.8949 39.9999 37.4231 39.0928 39.9977 38.6392V20.6782Z" fill="#DE3232"/>
<path d="M30.6192 38.6382C27.5297 39.7267 19.4015 39.9989 15.7236 39.9989C23.7231 39.9989 40.2185 39.7267 39.9978 38.6382C39.722 37.2775 34.481 37.2775 30.6192 38.6382Z" fill="#730101"/>
<path fill-rule="evenodd" clip-rule="evenodd" d="M32.8512 23.868C36.3868 22.5631 39.1986 22.8886 39.9977 23.1268V22.0383C38.9258 21.7187 36.1824 21.4763 32.4646 22.8485C30.7174 23.4933 28.3083 23.906 25.9763 24.1557C23.6534 24.4045 21.4498 24.4872 20.137 24.4872V25.5757C21.4867 25.5757 23.7302 25.4912 26.0954 25.2379C28.4515 24.9857 30.9716 24.5618 32.8512 23.868ZM39.9977 25.8482C39.1986 25.61 36.3868 25.2845 32.8512 26.5894C30.9716 27.2831 28.4515 27.707 26.0954 27.9593C23.7302 28.2126 21.4867 28.2971 20.137 28.2971V27.2086C21.4498 27.2086 23.6534 27.1258 25.9763 26.8771C28.3083 26.6274 30.7174 26.2147 32.4646 25.5699C36.1824 24.1977 38.9258 24.4401 39.9977 24.7597V25.8482ZM32.8512 29.3107C36.3868 28.0057 39.1986 28.3312 39.9977 28.5694V27.4809C38.9258 27.1614 36.1824 26.9189 32.4646 28.2911C30.7174 28.936 28.3083 29.3487 25.9763 29.5984C23.6534 29.8471 21.4498 29.9298 20.137 29.9298V31.0184C21.4867 31.0184 23.7302 30.9338 26.0954 30.6806C28.4515 30.4283 30.9716 30.0044 32.8512 29.3107ZM30.7706 32.0861C35.331 30.8006 38.9084 31.043 39.9977 31.291V30.2025C38.6963 29.9062 35.1753 29.7124 30.4675 31.0394C25.9148 32.3227 18.0213 32.6513 14.6201 32.6513V33.7399C18.0231 33.7399 26.0549 33.4153 30.7706 32.0861ZM39.9977 34.012C38.9084 33.764 35.331 33.4559 30.7706 34.7414C26.0549 36.0706 18.0231 36.3951 14.6201 36.3951V35.3066C18.0213 35.3066 25.9148 34.978 30.4675 33.6947C35.1753 32.3677 38.6963 32.627 39.9977 32.9233V34.012ZM30.7706 37.4631C35.331 36.1777 38.9084 36.4857 39.9977 36.7337V35.645C38.6963 35.3487 35.1753 35.0894 30.4675 36.4165C25.9148 37.6998 18.0213 38.0283 14.6201 38.0283V39.1169C18.0231 39.1169 26.0549 38.7924 30.7706 37.4631Z" fill="white"/>
<path d="M26.7572 31.8962V22.0386L14.6201 23.3993V32.6519H16.9891C20.2597 32.6519 23.5255 32.3992 26.7572 31.8962Z" fill="#1132B6"/>
<path d="M15.7236 24.4484V23.9429L15.1719 24.0126V24.4871H15.2788C15.4279 24.4871 15.5767 24.4742 15.7236 24.4484Z" fill="white"/>
<path d="M16.8271 23.9044V23.3989L16.2754 23.4687V23.9432H16.3824C16.5314 23.9432 16.6802 23.9302 16.8271 23.9044Z" fill="white"/>
<path d="M17.9306 23.9044V23.3989L17.3789 23.4687V23.9432H17.4859C17.635 23.9432 17.7838 23.9302 17.9306 23.9044Z" fill="white"/>
<path d="M19.0336 23.9044V23.3989L18.4819 23.4687V23.9432H18.5889C18.738 23.9432 18.8868 23.9302 19.0336 23.9044Z" fill="white"/>
<path d="M20.1371 23.3605V22.855L19.5854 22.9248V23.3993H19.6924C19.8415 23.3993 19.9903 23.3863 20.1371 23.3605Z" fill="white"/>
<path d="M21.2407 23.9044V23.3989L20.689 23.4687V23.9432H20.7959C20.945 23.9432 21.0938 23.9302 21.2407 23.9044Z" fill="white"/>
<path d="M22.3437 23.3605V22.855L21.792 22.9248V23.3993H21.899C22.048 23.3993 22.1968 23.3863 22.3437 23.3605Z" fill="white"/>
<path d="M23.4472 23.9044V23.3989L22.8955 23.4687V23.9432H23.0025C23.1516 23.9432 23.3004 23.9302 23.4472 23.9044Z" fill="white"/>
<path d="M24.5507 22.8161V22.3105L23.999 22.3803V22.8548H24.106C24.2551 22.8548 24.4039 22.8419 24.5507 22.8161Z" fill="white"/>
<path d="M25.6537 23.3605V22.855L25.1021 22.9248V23.3993H25.209C25.3581 23.3993 25.5069 23.3863 25.6537 23.3605Z" fill="white"/>
<path d="M26.7573 22.8161V22.3105L26.2056 22.3803V22.8548H26.3125C26.4616 22.8548 26.6104 22.8419 26.7573 22.8161Z" fill="white"/>
<path d="M15.7236 26.0817V25.5762L15.1719 25.646V26.1204H15.2788C15.4279 26.1204 15.5767 26.1075 15.7236 26.0817Z" fill="white"/>
<path d="M16.8271 25.5377V25.0322L16.2754 25.102V25.5765H16.3824C16.5314 25.5765 16.6802 25.5635 16.8271 25.5377Z" fill="white"/>
<path d="M17.9306 25.5377V25.0322L17.3789 25.102V25.5765H17.4859C17.635 25.5765 17.7838 25.5635 17.9306 25.5377Z" fill="white"/>
<path d="M19.0336 25.5377V25.0322L18.4819 25.102V25.5765H18.5889C18.738 25.5765 18.8868 25.5635 19.0336 25.5377Z" fill="white"/>
<path d="M20.1371 24.9933V24.4878L19.5854 24.5576V25.0321H19.6924C19.8415 25.0321 19.9903 25.0191 20.1371 24.9933Z" fill="white"/>
<path d="M21.2407 25.5377V25.0322L20.689 25.102V25.5765H20.7959C20.945 25.5765 21.0938 25.5635 21.2407 25.5377Z" fill="white"/>
<path d="M22.3437 24.9933V24.4878L21.792 24.5576V25.0321H21.899C22.048 25.0321 22.1968 25.0191 22.3437 24.9933Z" fill="white"/>
<path d="M23.4472 25.5377V25.0322L22.8955 25.102V25.5765H23.0025C23.1516 25.5765 23.3004 25.5635 23.4472 25.5377Z" fill="white"/>
<path d="M24.5507 24.4484V23.9429L23.999 24.0126V24.4871H24.106C24.2551 24.4871 24.4039 24.4742 24.5507 24.4484Z" fill="white"/>
<path d="M25.6537 24.9933V24.4878L25.1021 24.5576V25.0321H25.209C25.3581 25.0321 25.5069 25.0191 25.6537 24.9933Z" fill="white"/>
<path d="M26.7573 24.4484V23.9429L26.2056 24.0126V24.4871H26.3125C26.4616 24.4871 26.6104 24.4742 26.7573 24.4484Z" fill="white"/>
<path d="M15.7236 27.714V27.2085L15.1719 27.2783V27.7528H15.2788C15.4279 27.7528 15.5767 27.7398 15.7236 27.714Z" fill="white"/>
<path d="M16.8271 27.1701V26.6646L16.2754 26.7343V27.2088H16.3824C16.5314 27.2088 16.6802 27.1959 16.8271 27.1701Z" fill="white"/>
<path d="M17.9306 27.1701V26.6646L17.3789 26.7343V27.2088H17.4859C17.635 27.2088 17.7838 27.1959 17.9306 27.1701Z" fill="white"/>
<path d="M19.0336 27.1701V26.6646L18.4819 26.7343V27.2088H18.5889C18.738 27.2088 18.8868 27.1959 19.0336 27.1701Z" fill="white"/>
<path d="M20.1371 26.6261V26.1206L19.5854 26.1904V26.6649H19.6924C19.8415 26.6649 19.9903 26.6519 20.1371 26.6261Z" fill="white"/>
<path d="M21.2407 27.1701V26.6646L20.689 26.7343V27.2088H20.7959C20.945 27.2088 21.0938 27.1959 21.2407 27.1701Z" fill="white"/>
<path d="M22.3437 26.6261V26.1206L21.792 26.1904V26.6649H21.899C22.048 26.6649 22.1968 26.6519 22.3437 26.6261Z" fill="white"/>
<path d="M23.4472 27.1701V26.6646L22.8955 26.7343V27.2088H23.0025C23.1516 27.2088 23.3004 27.1959 23.4472 27.1701Z" fill="white"/>
<path d="M24.5507 26.0817V25.5762L23.999 25.646V26.1204H24.106C24.2551 26.1204 24.4039 26.1075 24.5507 26.0817Z" fill="white"/>
<path d="M25.6537 26.6261V26.1206L25.1021 26.1904V26.6649H25.209C25.3581 26.6649 25.5069 26.6519 25.6537 26.6261Z" fill="white"/>
<path d="M26.7573 26.0817V25.5762L26.2056 25.646V26.1204H26.3125C26.4616 26.1204 26.6104 26.1075 26.7573 26.0817Z" fill="white"/>
<path d="M15.7236 29.3468V28.8413L15.1719 28.9111V29.3856H15.2788C15.4279 29.3856 15.5767 29.3726 15.7236 29.3468Z" fill="white"/>
<path d="M16.8271 28.8034V28.2979L16.2754 28.3676V28.8421H16.3824C16.5314 28.8421 16.6802 28.8292 16.8271 28.8034Z" fill="white"/>
<path d="M17.9306 28.8034V28.2979L17.3789 28.3676V28.8421H17.4859C17.635 28.8421 17.7838 28.8292 17.9306 28.8034Z" fill="white"/>
<path d="M19.0336 28.8034V28.2979L18.4819 28.3676V28.8421H18.5889C18.738 28.8421 18.8868 28.8292 19.0336 28.8034Z" fill="white"/>
<path d="M20.1371 28.2594V27.7539L19.5854 27.8237V28.2982H19.6924C19.8415 28.2982 19.9903 28.2852 20.1371 28.2594Z" fill="white"/>
<path d="M21.2407 28.8034V28.2979L20.689 28.3676V28.8421H20.7959C20.945 28.8421 21.0938 28.8292 21.2407 28.8034Z" fill="white"/>
<path d="M22.3437 28.2594V27.7539L21.792 27.8237V28.2982H21.899C22.048 28.2982 22.1968 28.2852 22.3437 28.2594Z" fill="white"/>
<path d="M23.4472 28.8034V28.2979L22.8955 28.3676V28.8421H23.0025C23.1516 28.8421 23.3004 28.8292 23.4472 28.8034Z" fill="white"/>
<path d="M24.5507 27.714V27.2085L23.999 27.2783V27.7528H24.106C24.2551 27.7528 24.4039 27.7398 24.5507 27.714Z" fill="white"/>
<path d="M25.6537 28.2594V27.7539L25.1021 27.8237V28.2982H25.209C25.3581 28.2982 25.5069 28.2852 25.6537 28.2594Z" fill="white"/>
<path d="M26.7573 27.714V27.2085L26.2056 27.2783V27.7528H26.3125C26.4616 27.7528 26.6104 27.7398 26.7573 27.714Z" fill="white"/>
<path d="M15.7236 30.9801V30.4746L15.1719 30.5444V31.0189H15.2788C15.4279 31.0189 15.5767 31.0059 15.7236 30.9801Z" fill="white"/>
<path d="M16.8271 30.4362V29.9307L16.2754 30.0004V30.4749H16.3824C16.5314 30.4749 16.6802 30.462 16.8271 30.4362Z" fill="white"/>
<path d="M17.9306 30.4362V29.9307L17.3789 30.0004V30.4749H17.4859C17.635 30.4749 17.7838 30.462 17.9306 30.4362Z" fill="white"/>
<path d="M19.0336 30.4362V29.9307L18.4819 30.0004V30.4749H18.5889C18.738 30.4749 18.8868 30.462 19.0336 30.4362Z" fill="white"/>
<path d="M20.1371 29.8913V29.3857L19.5854 29.4555V29.93H19.6924C19.8415 29.93 19.9903 29.917 20.1371 29.8913Z" fill="white"/>
<path d="M21.2407 30.4362V29.9307L20.689 30.0004V30.4749H20.7959C20.945 30.4749 21.0938 30.462 21.2407 30.4362Z" fill="white"/>
<path d="M22.3437 29.8913V29.3857L21.792 29.4555V29.93H21.899C22.048 29.93 22.1968 29.917 22.3437 29.8913Z" fill="white"/>
<path d="M23.4472 30.4362V29.9307L22.8955 30.0004V30.4749H23.0025C23.1516 30.4749 23.3004 30.462 23.4472 30.4362Z" fill="white"/>
<path d="M24.5507 29.3468V28.8413L23.999 28.9111V29.3856H24.106C24.2551 29.3856 24.4039 29.3726 24.5507 29.3468Z" fill="white"/>
<path d="M25.6537 29.8913V29.3857L25.1021 29.4555V29.93H25.209C25.3581 29.93 25.5069 29.917 25.6537 29.8913Z" fill="white"/>
<path d="M26.7573 29.3468V28.8413L26.2056 28.9111V29.3856H26.3125C26.4616 29.3856 26.6104 29.3726 26.7573 29.3468Z" fill="white"/>
<path d="M15.7236 32.6129V32.1074L15.1719 32.1772V32.6517H15.2788C15.4279 32.6517 15.5767 32.6387 15.7236 32.6129Z" fill="white"/>
<path d="M16.8271 32.069V31.5635L16.2754 31.6333V32.1077H16.3824C16.5314 32.1077 16.6802 32.0948 16.8271 32.069Z" fill="white"/>
<path d="M17.9306 32.069V31.5635L17.3789 31.6333V32.1077H17.4859C17.635 32.1077 17.7838 32.0948 17.9306 32.069Z" fill="white"/>
<path d="M19.0336 32.069V31.5635L18.4819 31.6333V32.1077H18.5889C18.738 32.1077 18.8868 32.0948 19.0336 32.069Z" fill="white"/>
<path d="M20.1371 31.5241V31.0186L19.5854 31.0883V31.5628H19.6924C19.8415 31.5628 19.9903 31.5499 20.1371 31.5241Z" fill="white"/>
<path d="M21.2407 32.069V31.5635L20.689 31.6333V32.1077H20.7959C20.945 32.1077 21.0938 32.0948 21.2407 32.069Z" fill="white"/>
<path d="M22.3437 31.5241V31.0186L21.792 31.0883V31.5628H21.899C22.048 31.5628 22.1968 31.5499 22.3437 31.5241Z" fill="white"/>
<path d="M23.4472 32.069V31.5635L22.8955 31.6333V32.1077H23.0025C23.1516 32.1077 23.3004 32.0948 23.4472 32.069Z" fill="white"/>
<path d="M24.5507 30.9801V30.4746L23.999 30.5444V31.0189H24.106C24.2551 31.0189 24.4039 31.0059 24.5507 30.9801Z" fill="white"/>
<path d="M25.6537 31.5241V31.0186L25.1021 31.0883V31.5628H25.209C25.3581 31.5628 25.5069 31.5499 25.6537 31.5241Z" fill="white"/>
<path d="M26.7573 30.9801V30.4746L26.2056 30.5444V31.0189H26.3125C26.4616 31.0189 26.6104 31.0059 26.7573 30.9801Z" fill="white"/>
</svg>
