<svg width="48" height="48" viewBox="0 0 48 48" fill="none" xmlns="http://www.w3.org/2000/svg">
<circle cx="24" cy="24" r="24" fill="white"/>
<path fill-rule="evenodd" clip-rule="evenodd" d="M33.8496 20.7273H37.9607C38.264 20.7273 38.5324 20.5312 38.6247 20.2423L40.9667 12.909C41.1103 12.4594 40.7748 12 40.3027 12H36.1917C35.8884 12 35.62 12.1961 35.5277 12.4849L33.1857 19.8183C33.0421 20.2679 33.3776 20.7273 33.8496 20.7273ZM7.69741 12.3635H12.167C12.476 12.3635 12.7481 12.567 12.8355 12.8634L16.8689 26.5454L21.5494 17.8219C21.6708 17.5956 21.9068 17.4544 22.1635 17.4544H26.1927C26.457 17.4544 26.6986 17.604 26.8165 17.8406L31.1533 26.5454L32.021 24.4321C32.1284 24.1706 32.3831 23.9999 32.6658 23.9999H36.8187C37.2907 23.9999 37.6262 24.4593 37.4826 24.9089L34.0954 35.515C34.0031 35.8038 33.7347 35.9999 33.4315 35.9999H28.1553C27.8633 35.9999 27.6023 35.8179 27.5013 35.5439L24.1853 26.5454L20.1881 35.5848C20.0765 35.8371 19.8266 35.9999 19.5507 35.9999H14.2545C13.9455 35.9999 13.6733 35.7964 13.586 35.5L7.02889 13.2576C6.89727 12.8111 7.23193 12.3635 7.69741 12.3635Z" fill="#122028"/>
</svg>
